<svg width="25" height="25" viewBox="0 0 25 25" fill="none" xmlns="http://www.w3.org/2000/svg">
<path d="M25 20.3392C25 22.9154 19.4052 25 12.5001 25C5.59481 25 0 22.9154 0 20.3392C0 19.0553 1.38802 17.8902 3.64239 17.0469C3.98354 17.5349 4.36714 17.9929 4.78886 18.4156C4.86645 18.4961 4.94408 18.5723 5.02594 18.6443C5.18116 18.7968 5.34065 18.9367 5.50441 19.0723C5.51295 19.0809 5.51722 19.0893 5.52596 19.0935C5.67244 19.2165 5.81892 19.3351 5.97413 19.4451C6.00945 19.4747 6.0469 19.5016 6.08629 19.5256C6.24151 19.6443 6.401 19.7545 6.56476 19.8604C6.5882 19.8762 6.61269 19.8903 6.63787 19.9027C6.76731 19.9918 6.8965 20.0681 7.03021 20.1444C7.1379 20.2121 7.25005 20.2713 7.36216 20.3307C7.51295 20.4156 7.66812 20.4916 7.82761 20.5637C7.95258 20.6272 8.08629 20.6824 8.21553 20.7417C8.41377 20.8264 8.61637 20.9026 8.81907 20.9748C8.93103 21.0129 9.03891 21.051 9.15087 21.085C9.30608 21.1357 9.4613 21.1825 9.62079 21.2248C9.62993 21.2302 9.64016 21.233 9.65089 21.2332C9.65437 21.2364 9.65904 21.238 9.66386 21.2374C9.76727 21.2672 9.87495 21.2925 9.98283 21.3137C9.98645 21.3178 9.99122 21.3209 9.99657 21.3224C10.0019 21.3239 10.0076 21.3239 10.0129 21.3222C10.1207 21.3522 10.2301 21.3762 10.3406 21.3942C10.3812 21.4068 10.4231 21.4153 10.4656 21.4197C10.582 21.4409 10.6984 21.462 10.8191 21.479C11.1502 21.5329 11.484 21.5696 11.8191 21.5891C11.8836 21.5933 11.9483 21.5977 12.0086 21.5977C12.336 21.6144 12.664 21.6144 12.9913 21.5977C13.0517 21.5977 13.1163 21.5933 13.1811 21.5891C13.5161 21.5696 13.85 21.5329 14.1811 21.479C14.3018 21.462 14.4182 21.4409 14.5344 21.4197C14.5769 21.4153 14.6188 21.4068 14.6596 21.3942C14.77 21.3762 14.8794 21.3522 14.9871 21.3222C14.9979 21.3255 15.0098 21.3222 15.0174 21.3137C15.1247 21.2928 15.231 21.2673 15.3361 21.2374C15.3384 21.2377 15.3408 21.2375 15.3431 21.2367C15.3453 21.236 15.3474 21.2348 15.3491 21.2332C15.3598 21.233 15.3701 21.2301 15.3794 21.2248C15.5388 21.1825 15.6939 21.1357 15.8491 21.085C15.9612 21.051 16.0689 21.0129 16.1811 20.9748C16.3836 20.9026 16.5862 20.8263 16.7845 20.7417C16.9137 20.6824 17.0474 20.6273 17.1723 20.5637C17.3318 20.4916 17.487 20.4156 17.638 20.3307C17.7499 20.2714 17.8621 20.2121 17.9698 20.1443C18.1034 20.0681 18.2327 19.9918 18.3621 19.9026C18.3875 19.8902 18.412 19.8761 18.4354 19.8604C18.5992 19.7545 18.7587 19.6443 18.9137 19.5256C18.9531 19.5016 18.9906 19.4747 19.0259 19.4451C19.1811 19.3351 19.3276 19.2164 19.474 19.0935C19.4828 19.0893 19.487 19.0809 19.4958 19.0723C19.6595 18.9367 19.819 18.7969 19.974 18.6443C20.0561 18.5724 20.1335 18.4961 20.2111 18.4156C20.6329 17.9928 21.0165 17.5349 21.3578 17.047C23.612 17.8902 25 19.0553 25 20.3393V20.3392Z" fill="#71C285"/>
<path d="M21.9826 20.3392C21.9826 18.7012 17.737 17.3733 12.4999 17.3733C7.26267 17.3733 3.01709 18.7012 3.01709 20.3392C3.01709 21.9772 7.26267 23.3052 12.4999 23.3052C17.737 23.3052 21.9826 21.9772 21.9826 20.3392Z" fill="#4C8056"/>
<path d="M22.8277 14.0387C22.7931 14.1489 22.7588 14.259 22.72 14.3692C22.651 14.5895 22.569 14.8056 22.4786 15.0175C22.4356 15.1233 22.388 15.225 22.3407 15.331C22.2943 15.4353 22.2454 15.5384 22.1942 15.6404C22.1166 15.8056 22.0302 15.9665 21.9398 16.1275C21.8837 16.2294 21.8234 16.331 21.7631 16.4327C21.6381 16.6402 21.5044 16.8478 21.358 17.047C21.0167 17.5349 20.633 17.9928 20.2113 18.4156C20.1337 18.4919 20.0563 18.5682 19.9742 18.6443H16.8104L14.6553 14.831L16.8104 11.0176H21.1208L22.8277 14.0387Z" fill="white"/>
<path d="M19.974 18.6443C19.819 18.7927 19.6594 18.9367 19.4957 19.0723C19.487 19.0809 19.4827 19.0893 19.474 19.0935C19.3275 19.2165 19.181 19.3351 19.0258 19.4452C18.9905 19.4747 18.953 19.5016 18.9137 19.5256C18.7586 19.6443 18.5991 19.7545 18.4353 19.8604C18.4119 19.8762 18.3873 19.8903 18.362 19.9027C18.2359 19.9903 18.1049 20.071 17.9697 20.1444C17.862 20.2121 17.7499 20.2713 17.6379 20.3307C17.4827 20.4112 17.3275 20.4917 17.1723 20.5638C17.0431 20.6272 16.9181 20.6824 16.7845 20.7417C16.5861 20.8264 16.3836 20.9027 16.181 20.9748C16.0731 21.0171 15.9612 21.051 15.8491 21.085C15.6939 21.136 15.5373 21.1827 15.3793 21.2248C15.37 21.2302 15.3597 21.233 15.3491 21.2332L16.8102 18.6443H19.974ZM9.65083 21.2332C9.64022 21.233 9.62985 21.2302 9.62073 21.2248C9.46278 21.1827 9.30609 21.136 9.15086 21.085C9.03885 21.051 8.9267 21.0172 8.81906 20.9748C8.61626 20.9027 8.41376 20.8263 8.21542 20.7417C8.08196 20.6824 7.95679 20.6273 7.82755 20.5638C7.67234 20.4917 7.51712 20.4112 7.36215 20.3307C7.24999 20.2714 7.13784 20.2121 7.03015 20.1444C6.89501 20.0709 6.76403 19.9902 6.63781 19.9027C6.61263 19.8903 6.58814 19.8762 6.5647 19.8604C6.40094 19.7545 6.24145 19.6443 6.08623 19.5256C6.04685 19.5016 6.00936 19.4747 5.97408 19.4452C5.81886 19.3351 5.67238 19.2165 5.5259 19.0935C5.51716 19.0893 5.51289 19.0809 5.50435 19.0723C5.34059 18.9367 5.1811 18.7927 5.02588 18.6443H8.18965L9.65083 21.2332Z" fill="#35495E"/>
<path d="M10.3448 14.831L8.18961 18.6443H5.02584C4.94399 18.5682 4.8664 18.4919 4.78877 18.4156C4.36705 17.9929 3.98345 17.535 3.64229 17.047C3.49562 16.8478 3.36215 16.6402 3.23699 16.4327C3.17664 16.331 3.11629 16.2294 3.06021 16.1275C2.96981 15.9665 2.88363 15.8056 2.80605 15.6404C2.75463 15.5384 2.70573 15.4353 2.65938 15.331C2.61204 15.225 2.56466 15.1233 2.52159 15.0175C2.43099 14.8056 2.34914 14.5895 2.28005 14.3692C2.24145 14.259 2.20688 14.1489 2.17236 14.0387L3.87917 11.0176H8.18961L10.3448 14.831Z" fill="white"/>
<path d="M3.87912 11.0176L2.17231 14.0387C1.57472 12.0675 1.57472 9.96786 2.17231 7.9967L3.87912 11.0176Z" fill="#35495E"/>
<path d="M10.3448 7.20419L8.18961 11.0176H3.87917L2.17236 7.99673C2.69989 6.24363 3.68344 4.6561 5.02589 3.39087H8.18961L10.3448 7.20419Z" fill="white"/>
<path d="M16.8105 11.0176L14.6554 14.831H10.3451L8.18994 11.0176L10.3451 7.20428H14.6554L16.8105 11.0176Z" fill="#35495E"/>
<path d="M16.8105 18.6443L15.3493 21.2332C15.3476 21.2348 15.3456 21.236 15.3433 21.2367C15.3411 21.2375 15.3387 21.2377 15.3363 21.2374C15.2311 21.2669 15.1248 21.2923 15.0176 21.3137C15.0139 21.3178 15.0091 21.3208 15.0037 21.3224C14.9984 21.3239 14.9926 21.3238 14.9873 21.3222C14.8796 21.3518 14.7717 21.373 14.6598 21.3942C14.6191 21.4068 14.5771 21.4153 14.5346 21.4197C14.4184 21.4451 14.2977 21.462 14.1814 21.479C13.8502 21.5328 13.5164 21.5696 13.1814 21.5891C13.121 21.5933 13.0562 21.5977 12.9916 21.5977C12.6643 21.6145 12.3362 21.6145 12.0089 21.5977C11.9443 21.5977 11.8797 21.5933 11.8193 21.5891C11.4843 21.5696 11.1505 21.5329 10.8193 21.479C10.7029 21.462 10.5822 21.4451 10.4658 21.4197C10.4233 21.4153 10.3814 21.4068 10.3408 21.3942C10.2287 21.373 10.121 21.3518 10.0132 21.3222C10.0078 21.3239 10.0022 21.3239 9.99681 21.3224C9.99146 21.3209 9.98668 21.3178 9.98307 21.3137C9.87578 21.2923 9.76937 21.2669 9.66409 21.2374C9.66175 21.2377 9.65937 21.2374 9.65713 21.2367C9.65489 21.236 9.65284 21.2348 9.65113 21.2332L8.18994 18.6443L10.3451 14.8309H14.6554L16.8105 18.6443ZM22.8278 7.99668L21.1209 11.0176H16.8106L14.6553 7.20424L16.8105 3.39087H19.9743C21.3167 4.65609 22.3002 6.2436 22.8278 7.99668Z" fill="white"/>
<path d="M19.974 3.39092H16.8102L15.3491 0.802185C17.0887 1.26658 18.6799 2.15728 19.974 3.39092ZM9.65083 0.802185L8.18965 3.39092H5.02588C6.31994 2.15731 7.91123 1.26662 9.65083 0.802185Z" fill="#35495E"/>
<path d="M16.8105 3.39093L14.6554 7.2042H10.3451L8.18994 3.39093L9.65108 0.802197C11.516 0.299251 13.4844 0.299251 15.3493 0.802197L16.8105 3.39093Z" fill="white"/>
<path d="M23.2758 11.0176C23.2775 12.0408 23.1264 13.0586 22.8275 14.0387L21.1206 11.0176L22.8275 7.99677C23.1264 8.97674 23.2774 9.99452 23.2758 11.0176Z" fill="#35495E"/>
<path d="M23.6984 10.6024V10.5566C23.6942 10.4588 23.6893 10.3609 23.6815 10.2725C23.6724 10.1168 23.6592 9.9606 23.6385 9.78171C23.6212 9.63254 23.6032 9.48055 23.5795 9.3436C23.5562 9.18379 23.5281 9.01954 23.4931 8.87326C23.4287 8.53821 23.3454 8.20692 23.2436 7.88093L23.2415 7.87331C23.2053 7.75847 23.1695 7.64408 23.1338 7.54242C23.0609 7.3113 22.9763 7.08391 22.8802 6.86111C22.8436 6.77205 22.8047 6.68568 22.7656 6.59794L22.7367 6.53442C22.6864 6.42212 22.6363 6.31451 22.5867 6.21803C22.5048 6.04372 22.4144 5.87395 22.3199 5.70609C22.2599 5.59812 22.198 5.49118 22.1342 5.38531C22.0122 5.18659 21.8863 4.98743 21.7536 4.80052C21.6643 4.67353 21.5746 4.54937 21.4819 4.42862C21.1902 4.04052 20.8708 3.67334 20.526 3.3299C20.4398 3.24065 20.3535 3.15579 20.2769 3.08885C20.1209 2.93929 19.96 2.79223 19.7955 2.65664C19.7826 2.64434 19.7692 2.63251 19.7553 2.6212C19.5981 2.48878 19.4364 2.36155 19.2705 2.23972C19.2349 2.21137 19.1978 2.18495 19.1593 2.16058C19.0029 2.04253 18.842 1.93032 18.677 1.82417C18.6481 1.80453 18.6181 1.78656 18.5871 1.77036C18.4637 1.68515 18.3357 1.60664 18.2036 1.53517C18.091 1.46403 17.9734 1.40129 17.8287 1.32327C17.6717 1.24207 17.5152 1.16097 17.3665 1.09193C17.2433 1.03129 17.1234 0.978069 16.9579 0.904294C16.7511 0.816164 16.5398 0.736822 16.3429 0.667002C16.224 0.619885 16.1005 0.582338 15.9872 0.548356C15.8336 0.497755 15.6787 0.451272 15.5225 0.408959C15.4977 0.399792 15.4722 0.392591 15.4463 0.387427C15.3359 0.357253 15.2307 0.330936 15.12 0.309404L15.1037 0.305986C14.9987 0.276964 14.8922 0.253333 14.7847 0.235189C14.7265 0.217655 14.6669 0.204916 14.6066 0.197105C14.4904 0.17304 14.3732 0.15356 14.2554 0.138709C13.9095 0.0822377 13.5609 0.0437099 13.2109 0.0232858C13.1411 0.0186962 13.0656 0.0144972 13.0274 0.0152784C12.9121 0.0059039 12.8019 0.0059039 12.7156 0.0062945C12.5823 -0.00209817 12.4486 -0.00209817 12.3153 0.0062945C12.1997 0.0062945 12.0885 0.0062945 12.0091 0.0148878C11.9346 0.0148878 11.8591 0.0194286 11.7938 0.0242135C11.4383 0.0446351 11.0841 0.0835384 10.7328 0.14076C10.6221 0.156775 10.508 0.173766 10.3966 0.197007C10.3499 0.201792 10.3037 0.211167 10.2589 0.225033C10.1351 0.248323 10.0157 0.27254 9.89663 0.305156L9.88168 0.308964C9.77735 0.329895 9.6738 0.354453 9.57124 0.382593C9.54725 0.387271 9.52374 0.394103 9.50101 0.403002C9.33591 0.445334 9.17522 0.494941 9.02681 0.544499C8.90284 0.581704 8.77946 0.619495 8.67425 0.661436C8.46356 0.736383 8.25226 0.815724 8.00625 0.921188C7.87994 0.977484 7.76003 1.03085 7.645 1.08768C7.48804 1.16058 7.33163 1.24143 7.14676 1.33718C7.02994 1.39953 6.91217 1.46437 6.82425 1.51857C6.68395 1.59502 6.54771 1.67845 6.41607 1.76856C6.38656 1.78423 6.35766 1.80141 6.32989 1.81987C6.16351 1.92676 6.00132 2.03983 5.84367 2.15882C5.80195 2.18567 5.76162 2.21467 5.72298 2.24558C5.55887 2.36271 5.40265 2.48839 5.24883 2.61846C5.23542 2.62989 5.2222 2.64136 5.20999 2.65337C5.02223 2.80917 4.86736 2.94994 4.73216 3.08172C4.64579 3.16086 4.56661 3.24001 4.48476 3.32072C4.13841 3.66514 3.81733 4.03326 3.52394 4.42232C3.43071 4.54415 3.34029 4.66804 3.25275 4.79388C3.11784 4.98362 2.99198 5.18273 2.86483 5.38702C2.80307 5.49068 2.7426 5.59508 2.68343 5.70018C2.58757 5.86956 2.49717 6.03913 2.42033 6.20309C2.36565 6.3107 2.31578 6.41826 2.26536 6.53061L2.2364 6.59408C2.19721 6.68187 2.15842 6.76824 2.12425 6.85139C2.03112 7.06552 1.94958 7.28433 1.87997 7.50692C1.8333 7.62507 1.79353 7.74573 1.76087 7.86833L1.75838 7.87712C1.65807 8.19872 1.57572 8.52548 1.51172 8.85593C1.47427 9.01573 1.44636 9.17998 1.42559 9.32836C1.40483 9.47674 1.38253 9.62874 1.36177 9.80041C1.34334 9.9568 1.32998 10.113 1.32084 10.2593C1.31304 10.3571 1.30842 10.455 1.30415 10.5528V10.5986C1.29968 10.738 1.29541 10.8736 1.29541 11.0138C1.29541 11.1541 1.29968 11.2898 1.30415 11.4292V11.4761C1.30877 11.5736 1.31309 11.671 1.32084 11.7591C1.32993 11.9146 1.34334 12.071 1.3639 12.2498C1.38114 12.399 1.39942 12.551 1.42306 12.6879C1.44636 12.8476 1.47427 13.012 1.50924 13.1583C1.57345 13.4941 1.65648 13.8263 1.75794 14.1531V14.1607C1.79419 14.2756 1.82996 14.39 1.86562 14.4917C1.93855 14.7228 2.02319 14.9501 2.11923 15.1729C2.15569 15.262 2.19448 15.3484 2.23387 15.4361L2.26263 15.4996C2.31304 15.612 2.36311 15.7195 2.41258 15.8163C2.49464 15.9904 2.58509 16.1601 2.67956 16.3279C2.7389 16.4349 2.80022 16.5409 2.86349 16.6457C3.01135 16.8911 3.15063 17.1029 3.28469 17.2842C3.63843 17.7905 4.03618 18.2656 4.47348 18.7042C4.55966 18.7934 4.64579 18.8783 4.72263 18.9453C4.87899 19.0948 5.03947 19.2419 5.20457 19.3774C5.21699 19.3898 5.2304 19.4019 5.24416 19.4129C5.40143 19.5453 5.56315 19.6725 5.72903 19.7944C5.7645 19.8226 5.80155 19.8491 5.8398 19.8735C5.99637 19.9916 6.15739 20.1038 6.32254 20.2099C6.35184 20.2296 6.38189 20.2477 6.41314 20.2641C6.53621 20.3493 6.66401 20.4277 6.79594 20.4989C6.9083 20.5701 7.02606 20.6328 7.1708 20.7108C7.32776 20.7926 7.48471 20.8735 7.63258 20.9422C7.75616 21.0032 7.87646 21.0566 8.04156 21.1302C8.24839 21.2183 8.45968 21.2977 8.65662 21.3675C8.77558 21.4146 8.89896 21.4523 9.01226 21.4861C9.16582 21.5368 9.32078 21.5833 9.47697 21.6255C9.50174 21.6348 9.52724 21.642 9.55321 21.6472C9.66358 21.6772 9.76878 21.7035 9.87954 21.7251L9.89444 21.7289C10 21.7577 10.1071 21.7811 10.2152 21.7989C10.2734 21.8165 10.333 21.8292 10.3933 21.837C10.5045 21.8603 10.6199 21.8794 10.7445 21.8954C11.0898 21.9517 11.4378 21.9903 11.7872 22.0108C11.8566 22.0153 11.9269 22.0174 11.9837 22.0192C12.1562 22.0285 12.3285 22.0327 12.4981 22.0327C12.6675 22.0327 12.8428 22.0285 12.9893 22.0201C13.0638 22.0201 13.1393 22.0153 13.2049 22.0108C13.56 21.9898 13.9135 21.9507 14.2642 21.8933C14.375 21.8773 14.4893 21.8603 14.6005 21.837C14.6469 21.8322 14.6926 21.8229 14.7373 21.809C14.8609 21.7857 14.9802 21.7615 15.0993 21.7289L15.1142 21.7251C15.2186 21.7042 15.3221 21.6797 15.4247 21.6514C15.4487 21.6469 15.4722 21.64 15.495 21.631C15.6601 21.5887 15.8209 21.5391 15.9692 21.4895C16.0933 21.4523 16.2165 21.4146 16.3217 21.3726C16.5324 21.2977 16.7437 21.2183 16.9889 21.1132C17.1156 21.0566 17.2359 21.0032 17.3506 20.9464C17.5073 20.8735 17.6643 20.7926 17.8493 20.6969C17.966 20.6345 18.0838 20.5697 18.1717 20.5155C18.3117 20.4393 18.4477 20.3559 18.579 20.2658C18.6086 20.2501 18.6375 20.2329 18.6653 20.2142C18.8317 20.1072 18.994 19.9941 19.1519 19.8752C19.1935 19.8491 19.2337 19.8209 19.2722 19.7906C19.4363 19.6737 19.5923 19.5477 19.7462 19.4177C19.7596 19.4062 19.773 19.3948 19.7849 19.383C19.9463 19.2484 20.1028 19.1082 20.2539 18.9626C20.2596 18.9578 20.2644 18.9525 20.2695 18.9474L20.2729 18.9443C20.3555 18.8707 20.4352 18.7939 20.5118 18.7143C20.9486 18.2766 21.346 17.8025 21.6996 17.2974C21.8397 17.1076 21.979 16.8957 22.1282 16.6478C22.19 16.5442 22.2505 16.4399 22.3096 16.3348C22.4053 16.1653 22.4959 15.9957 22.5725 15.8319C22.6272 15.7241 22.6773 15.6166 22.7277 15.5042L22.7566 15.4407C22.7958 15.3529 22.8346 15.2666 22.8686 15.1836C22.964 14.9632 23.0479 14.7382 23.1198 14.5094C23.1604 14.3945 23.1963 14.2802 23.232 14.1666L23.2345 14.1577C23.335 13.8362 23.4173 13.5095 23.4811 13.1791C23.5186 13.0192 23.5467 12.8549 23.5672 12.7066C23.588 12.5583 23.6105 12.4061 23.6311 12.2346C23.6497 12.0782 23.6631 11.9218 23.6717 11.7757C23.6798 11.6783 23.6841 11.5808 23.6889 11.4833V11.4363C23.6932 11.2968 23.6974 11.1612 23.6974 11.021C23.6974 10.8809 23.7027 10.7418 23.6984 10.6024ZM21.6138 11.0176L22.6678 9.15342C22.6889 9.25839 22.7108 9.36518 22.7264 9.47538C22.7489 9.60833 22.7644 9.74528 22.7828 9.90162C22.7993 10.0418 22.8117 10.1826 22.8203 10.3325C22.828 10.4199 22.8319 10.507 22.8368 10.6291C22.841 10.7605 22.8449 10.8875 22.8449 11.0193C22.8449 11.1512 22.841 11.2783 22.8358 11.4431C22.8322 11.5336 22.8269 11.624 22.8199 11.7143C22.8111 11.8627 22.7979 12.0107 22.7803 12.1583C22.7644 12.2918 22.7489 12.4286 22.7242 12.5732C22.7095 12.6723 22.6885 12.7778 22.6674 12.8833L21.6138 11.0176ZM20.7888 4.93333C20.8759 5.04791 20.9607 5.16413 21.0432 5.28194C21.1674 5.4565 21.2824 5.63886 21.3907 5.81541C21.4487 5.91424 21.5069 6.01247 21.563 6.11203C21.6491 6.26422 21.7299 6.41621 21.8092 6.58368C21.8579 6.67938 21.9024 6.77518 21.9466 6.87468L21.9759 6.93957C22.0114 7.01833 22.0467 7.09537 22.082 7.18101C22.1691 7.3848 22.2462 7.59254 22.3131 7.80354C22.3298 7.85217 22.3449 7.90178 22.3608 7.9506L20.8668 10.594H17.0644L15.9868 8.68738L15.1484 7.2043L15.9864 5.72142L17.064 3.81474H19.798C19.8329 3.84867 19.8674 3.87919 19.9045 3.91776C20.2234 4.23527 20.5189 4.57465 20.7889 4.93333H20.7888ZM14.4015 14.4074H10.5989L9.52122 12.5007L8.68305 11.0176L9.52083 9.5348L10.5985 7.62806H14.4011L15.4787 9.53475L16.3174 11.0176L15.4795 12.5007L14.4015 14.4074ZM16.6382 1.6962C16.754 1.74785 16.8644 1.79609 16.9858 1.85634C17.1322 1.92406 17.2773 1.9996 17.4442 2.08602C17.542 2.13807 17.6411 2.18977 17.7606 2.26394C17.8819 2.33001 17.9995 2.4026 18.1128 2.48136C18.1298 2.49318 18.1777 2.52164 18.1967 2.53097C18.3512 2.63014 18.5016 2.73524 18.6477 2.84604C18.6653 2.85922 18.7095 2.89242 18.729 2.90287C18.7346 2.90707 18.7656 2.93129 18.7722 2.9351C18.7868 2.94559 18.8002 2.95839 18.8153 2.96908H17.0644L16.26 1.5424C16.3821 1.58819 16.5062 1.63682 16.6382 1.6962ZM10.1294 1.12103C10.2261 1.09432 10.3221 1.07621 10.4636 1.04701C10.4775 1.04262 10.4921 1.03939 10.5066 1.03729C10.5241 1.03559 10.5415 1.0329 10.5588 1.02909C10.657 1.00756 10.7588 0.993254 10.8906 0.974163C11.2076 0.922474 11.5271 0.887206 11.8479 0.868505C11.8989 0.865282 11.9531 0.861474 12.0437 0.859716C12.1343 0.857959 12.2226 0.852881 12.3454 0.851709C12.3962 0.848682 12.4515 0.848682 12.5002 0.848682C12.5489 0.848682 12.6044 0.848682 12.6855 0.852881C12.7751 0.852881 12.8644 0.852881 12.9915 0.861474C13.0462 0.861474 13.1005 0.865282 13.1537 0.869091C13.485 0.888599 13.815 0.925335 14.1424 0.979144C14.2406 0.993254 14.3425 1.00756 14.4406 1.02909C14.4579 1.0329 14.4754 1.03559 14.4928 1.03729C14.5219 1.04208 14.5506 1.04872 14.579 1.05712C14.6795 1.07621 14.7755 1.09432 14.8722 1.12103L14.8859 1.12445C14.902 1.12982 14.9183 1.13402 14.935 1.13724C14.978 1.14564 15.0214 1.15804 15.0644 1.16815L16.3174 3.39083L15.9692 4.0075L14.4014 6.7806H10.5988L9.03123 4.00686L8.68305 3.39083L9.93721 1.16854C9.98022 1.15843 10.0235 1.14603 10.0666 1.13763C10.0832 1.13451 10.0996 1.13024 10.1157 1.12484L10.1294 1.12103ZM6.29323 2.87987C6.31261 2.86942 6.33128 2.85756 6.34891 2.84423C6.49544 2.73242 6.64539 2.62871 6.82952 2.51124C6.84841 2.50202 6.86657 2.49142 6.88386 2.47955C7.00516 2.39557 7.13106 2.31821 7.261 2.24783C7.35532 2.18792 7.45446 2.13626 7.57303 2.07313C7.71911 1.99779 7.86444 1.92226 8.01866 1.85034C8.13196 1.79429 8.24238 1.74605 8.38557 1.68082C8.49793 1.63297 8.61823 1.5902 8.736 1.54557L7.93601 2.96722H6.18207C6.20144 2.95277 6.21873 2.93881 6.2389 2.92489L6.29323 2.87987ZM2.69237 7.7907C2.75446 7.59335 2.82857 7.39424 2.92135 7.17584C2.95413 7.09625 2.9894 7.01926 3.02471 6.9403L3.05402 6.87541C3.09708 6.77586 3.14293 6.68011 3.19722 6.57294C3.27093 6.41714 3.35184 6.2649 3.43896 6.11061C3.4933 6.01242 3.55151 5.91419 3.6062 5.82093C3.71776 5.63881 3.83304 5.45645 3.95915 5.27945C4.04126 5.16149 4.1258 5.04518 4.21272 4.9306C4.48207 4.57347 4.77661 4.23539 5.09416 3.91883C5.12813 3.88544 5.16692 3.84901 5.20224 3.81469H7.93606L9.0134 5.72133L9.85183 7.20425L9.014 8.68733L7.93641 10.594H4.13339L2.63684 7.94616C2.65279 7.89792 2.67007 7.84753 2.69237 7.7907ZM2.33247 12.8819C2.31131 12.7769 2.2894 12.67 2.27386 12.56C2.2515 12.4269 2.23601 12.2901 2.21738 12.1337C2.20063 11.9905 2.18814 11.8468 2.17993 11.7028C2.17258 11.618 2.16831 11.5287 2.16344 11.4063C2.15917 11.2766 2.15529 11.1494 2.15529 11.0176C2.15529 10.8858 2.15917 10.7588 2.16443 10.594C2.16831 10.5063 2.17218 10.4189 2.18033 10.3221C2.18847 10.1816 2.20109 10.0411 2.21991 9.87784C2.23601 9.74455 2.25155 9.60755 2.27599 9.46297C2.29074 9.364 2.3119 9.25839 2.33286 9.15288L3.38636 11.0176L2.33247 12.8819ZM3.99193 16.7979C3.86776 16.6283 3.74239 16.4389 3.60972 16.2183C3.55088 16.1202 3.49337 16.0213 3.43722 15.9217C3.35109 15.7695 3.27033 15.6175 3.19121 15.4501C3.14253 15.3543 3.09808 15.2586 3.05362 15.159L3.02432 15.0942C2.98905 15.0154 2.95374 14.9381 2.91822 14.8527C2.83114 14.6489 2.75408 14.4412 2.68731 14.2302C2.67042 14.1815 2.65532 14.1319 2.63938 14.0831L4.13339 11.4414H7.93601L9.01345 13.348L9.85178 14.831L9.014 16.314L7.93641 18.2207H5.20184C5.16732 18.1867 5.133 18.1562 5.09669 18.1191C4.69032 17.7111 4.32069 17.2693 3.99193 16.7987V16.7979ZM8.36228 20.3414C8.24665 20.2897 8.13643 20.2409 8.01345 20.1804C7.86732 20.1129 7.72218 20.0376 7.55574 19.9511C7.45794 19.8989 7.3588 19.8472 7.23949 19.7732C7.11829 19.7071 7.00086 19.6345 6.88773 19.5558C6.86945 19.5435 6.82291 19.5159 6.80136 19.5062C6.64713 19.4066 6.49713 19.3029 6.35065 19.1909C6.33376 19.1783 6.28683 19.144 6.2682 19.1333C6.26259 19.1295 6.23249 19.1059 6.22514 19.1021C6.21058 19.0913 6.19717 19.0788 6.18207 19.0681H7.93427L8.73848 20.4934C8.62091 20.4472 8.49405 20.3986 8.36228 20.3414ZM14.8708 20.9141C14.7744 20.9408 14.6781 20.9591 14.5369 20.9883C14.5227 20.9927 14.5083 20.996 14.4936 20.9981C14.4761 20.9998 14.4586 21.0025 14.4416 21.0061C14.3433 21.0278 14.2415 21.0421 14.1096 21.0611C13.7926 21.1128 13.4731 21.148 13.1523 21.1666C13.1015 21.17 13.0471 21.1739 12.9692 21.1743C12.6496 21.1914 12.3293 21.1914 12.0097 21.1743C11.9548 21.1743 11.9005 21.1705 11.8475 21.1667C11.5162 21.1472 11.1861 21.1104 10.8588 21.0566C10.7604 21.0424 10.6588 21.0282 10.5606 21.0066C10.5434 21.0028 10.5259 21.0001 10.5084 20.9984C10.4792 20.9936 10.4503 20.987 10.422 20.9786C10.3217 20.9595 10.2255 20.9414 10.129 20.9147L10.1153 20.9112C10.0992 20.9059 10.0827 20.9017 10.066 20.8985C10.0229 20.8901 9.97987 20.8777 9.93676 20.8676L8.683 18.6443L9.03128 18.0279L10.5988 15.2548H14.4014L15.9692 18.0282L16.3174 18.6443L15.063 20.8668C15.02 20.8769 14.9769 20.8891 14.9338 20.8977C14.9171 20.9008 14.9007 20.905 14.8846 20.9103L14.8708 20.9141ZM18.7041 19.1562C18.6851 19.1665 18.6672 19.1779 18.6501 19.1909C18.5037 19.3029 18.3535 19.4066 18.1721 19.5224C18.1523 19.5322 18.1331 19.5434 18.1148 19.5558C17.9936 19.6397 17.8679 19.7171 17.738 19.7875C17.6437 19.8472 17.5446 19.8988 17.4261 19.9616C17.2803 20.0376 17.135 20.1129 16.9798 20.185C16.8661 20.2409 16.7557 20.2897 16.6135 20.3545C16.501 20.4024 16.3807 20.4451 16.2631 20.4895L17.0644 19.0681H18.8182C18.7988 19.0826 18.7815 19.0965 18.7613 19.1104L18.7041 19.1562ZM22.3083 14.2447C22.2462 14.4421 22.172 14.6412 22.0795 14.8594C22.0467 14.9391 22.0114 15.0161 21.9759 15.0949L21.9466 15.1597C21.9035 15.2593 21.8579 15.355 21.8036 15.4625C21.7299 15.6182 21.6487 15.7705 21.5617 15.9245C21.5075 16.023 21.4493 16.1212 21.3928 16.217C21.2584 16.4399 21.1342 16.63 21.0048 16.8073C20.6759 17.2769 20.3062 17.7176 19.9 18.1246C19.869 18.1566 19.8372 18.1885 19.8044 18.2207H17.0644L15.9868 16.314L15.1484 14.831L15.9864 13.3481L17.064 11.4414H20.8665L22.3597 14.0837C22.3432 14.1369 22.3276 14.1865 22.3079 14.2447H22.3083Z" fill="#2C3E50"/>
</svg>
