<svg width="60" height="60" viewBox="0 0 60 60" fill="none" xmlns="http://www.w3.org/2000/svg">
<g filter="url(#filter0_d_339_9)">
<rect x="4" width="52" height="52" rx="10" fill="white"/>
</g>
<path d="M21.3124 30.1279H18.125C16.9514 30.1279 16 31.0793 16 32.2529V39.6902C16 40.8638 16.9514 41.8152 18.125 41.8152H21.3124C22.486 41.8152 23.4373 40.8638 23.4373 39.6902V32.2529C23.4373 31.0793 22.486 30.1279 21.3124 30.1279Z" fill="#273F4F"/>
<path d="M31.9374 25.8779H27.6875C26.5139 25.8779 25.5625 26.8293 25.5625 28.0029V39.6901C25.5625 40.8637 26.5139 41.8151 27.6875 41.8151H31.9374C33.1109 41.8151 34.0623 40.8637 34.0623 39.6901V28.0029C34.0623 26.8293 33.1109 25.8779 31.9374 25.8779Z" fill="#273F4F"/>
<path d="M41.4979 31.1914H38.3105C37.1369 31.1914 36.1855 32.1428 36.1855 33.3164V39.6912C36.1855 40.8648 37.1369 41.8162 38.3105 41.8162H41.4979C42.6715 41.8162 43.6229 40.8648 43.6229 39.6912V33.3164C43.6229 32.1428 42.6715 31.1914 41.4979 31.1914Z" fill="#273F4F"/>
<path d="M37.175 21.6283C37.3159 21.3843 37.548 21.2062 37.8202 21.1333C38.0923 21.0604 38.3823 21.0985 38.6264 21.2394L39.5465 21.7707C39.6683 21.8399 39.7752 21.9326 39.861 22.0433C39.9469 22.1541 40.01 22.2807 40.0467 22.4159C40.0834 22.5511 40.093 22.6923 40.075 22.8312C40.0569 22.9702 40.0115 23.1042 39.9415 23.2255C39.8714 23.3469 39.778 23.4532 39.6667 23.5383C39.5554 23.6234 39.4284 23.6857 39.2929 23.7215C39.1574 23.7573 39.0162 23.766 38.8774 23.747C38.7386 23.728 38.6049 23.6817 38.484 23.6109L37.5639 23.0796C37.3199 22.9387 37.1418 22.7067 37.0689 22.4345C36.996 22.1623 37.0341 21.8723 37.175 21.6283ZM37.175 13.1285C37.3159 13.3725 37.548 13.5506 37.8202 13.6235C38.0923 13.6964 38.3823 13.6582 38.6264 13.5173L39.5465 12.9861C39.6683 12.9168 39.7752 12.8242 39.861 12.7134C39.9469 12.6027 40.01 12.4761 40.0467 12.3409C40.0834 12.2056 40.093 12.0645 40.075 11.9255C40.0569 11.7866 40.0115 11.6526 39.9415 11.5312C39.8714 11.4099 39.778 11.3036 39.6667 11.2185C39.5554 11.1334 39.4284 11.0711 39.2929 11.0353C39.1574 10.9995 39.0162 10.9908 38.8774 11.0098C38.7386 11.0288 38.6049 11.075 38.484 11.1459L37.5639 11.6771C37.3199 11.818 37.1418 12.0501 37.0689 12.3223C36.996 12.5944 37.0341 12.8844 37.175 13.1285ZM38.314 17.3784C38.314 17.6602 38.4259 17.9304 38.6252 18.1297C38.8244 18.3289 39.0947 18.4409 39.3765 18.4409H40.439C40.7207 18.4409 40.991 18.3289 41.1902 18.1297C41.3895 17.9304 41.5014 17.6602 41.5014 17.3784C41.5014 17.0966 41.3895 16.8264 41.1902 16.6271C40.991 16.4278 40.7207 16.3159 40.439 16.3159H39.3765C39.0947 16.3159 38.8244 16.4278 38.6252 16.6271C38.4259 16.8264 38.314 17.0966 38.314 17.3784ZM22.4534 21.6283C22.3125 21.3843 22.0804 21.2062 21.8082 21.1333C21.536 21.0604 21.246 21.0985 21.002 21.2394L20.0819 21.7707C19.9601 21.8399 19.8532 21.9326 19.7673 22.0433C19.6815 22.1541 19.6184 22.2807 19.5817 22.4159C19.545 22.5511 19.5354 22.6923 19.5534 22.8312C19.5715 22.9702 19.6169 23.1042 19.6869 23.2255C19.757 23.3469 19.8504 23.4532 19.9617 23.5383C20.073 23.6234 20.2 23.6857 20.3355 23.7215C20.4709 23.7573 20.6121 23.766 20.751 23.747C20.8898 23.728 21.0235 23.6817 21.1444 23.6109L22.0645 23.0796C22.3085 22.9387 22.4866 22.7067 22.5595 22.4345C22.6324 22.1623 22.5942 21.8723 22.4534 21.6283ZM22.4534 13.1285C22.3125 13.3725 22.0804 13.5506 21.8082 13.6235C21.536 13.6964 21.246 13.6582 21.002 13.5173L20.0819 12.9861C19.9601 12.9168 19.8532 12.8242 19.7673 12.7134C19.6815 12.6027 19.6184 12.4761 19.5817 12.3409C19.545 12.2056 19.5354 12.0645 19.5534 11.9255C19.5715 11.7866 19.6169 11.6526 19.6869 11.5312C19.757 11.4099 19.8504 11.3036 19.9617 11.2185C20.073 11.1334 20.2 11.0711 20.3355 11.0353C20.4709 10.9995 20.6121 10.9908 20.751 11.0098C20.8898 11.0288 21.0235 11.075 21.1444 11.1459L22.0645 11.6771C22.3085 11.818 22.4866 12.0501 22.5595 12.3223C22.6324 12.5944 22.5942 12.8844 22.4534 13.1285ZM19.1894 18.4409H20.2519C20.5337 18.4409 20.8039 18.3289 21.0032 18.1297C21.2024 17.9304 21.3144 17.6602 21.3144 17.3784C21.3144 17.0966 21.2024 16.8264 21.0032 16.6271C20.8039 16.4278 20.5337 16.3159 20.2519 16.3159H19.1894C18.9076 16.3159 18.6374 16.4278 18.4381 16.6271C18.2389 16.8264 18.127 17.0966 18.127 17.3784C18.127 17.6602 18.2389 17.9304 18.4381 18.1297C18.6374 18.3289 18.9076 18.4409 19.1894 18.4409ZM35.5558 16.5497L33.5105 18.5439L33.994 21.3595C34.0299 21.5686 34.0066 21.7837 33.9266 21.9802C33.8467 22.1768 33.7133 22.3471 33.5416 22.4718C33.3699 22.5965 33.1668 22.6707 32.9551 22.6859C32.7434 22.7011 32.5317 22.6568 32.3439 22.558L29.8153 21.2288L27.2866 22.558C27.0988 22.6568 26.8871 22.7011 26.6754 22.6859C26.4637 22.6707 26.2606 22.5965 26.0889 22.4718C25.9172 22.3471 25.7838 22.1768 25.7039 21.9802C25.6239 21.7837 25.6006 21.5686 25.6365 21.3595L26.12 18.5439L24.0747 16.5497C23.9225 16.4016 23.8148 16.2139 23.7638 16.0078C23.7128 15.8018 23.7205 15.5855 23.7861 15.3836C23.8517 15.1817 23.9725 15.0021 24.1348 14.8653C24.2972 14.7285 24.4946 14.6399 24.7047 14.6096L27.532 14.1984L28.7963 11.6368C28.8902 11.4465 29.0355 11.2864 29.2156 11.1744C29.3958 11.0624 29.6037 11.0031 29.8158 11.0031C30.0279 11.0031 30.2358 11.0624 30.416 11.1744C30.5961 11.2864 30.7413 11.4465 30.8352 11.6368L32.0996 14.1984L34.9268 14.6096C35.1369 14.6399 35.3344 14.7285 35.4967 14.8653C35.6591 15.0021 35.7799 15.1817 35.8455 15.3836C35.911 15.5855 35.9188 15.8018 35.8678 16.0078C35.8168 16.2139 35.7091 16.4016 35.5569 16.5497H35.5558Z" fill="#273F4F"/>
<defs>
<filter id="filter0_d_339_9" x="0" y="0" width="60" height="60" filterUnits="userSpaceOnUse" color-interpolation-filters="sRGB">
<feFlood flood-opacity="0" result="BackgroundImageFix"/>
<feColorMatrix in="SourceAlpha" type="matrix" values="0 0 0 0 0 0 0 0 0 0 0 0 0 0 0 0 0 0 127 0" result="hardAlpha"/>
<feOffset dy="4"/>
<feGaussianBlur stdDeviation="2"/>
<feComposite in2="hardAlpha" operator="out"/>
<feColorMatrix type="matrix" values="0 0 0 0 0 0 0 0 0 0 0 0 0 0 0 0 0 0 0.25 0"/>
<feBlend mode="normal" in2="BackgroundImageFix" result="effect1_dropShadow_339_9"/>
<feBlend mode="normal" in="SourceGraphic" in2="effect1_dropShadow_339_9" result="shape"/>
</filter>
</defs>
</svg>
