<svg width="38" height="38" viewBox="0 0 38 38" fill="none" xmlns="http://www.w3.org/2000/svg">
<path d="M27.5013 8.51743C25.3018 6.79476 22.6291 5.42857 19.4075 5.42857C16.8684 5.42962 14.3785 6.11334 12.2092 7.40512C10.04 8.69691 8.27483 10.5471 7.10628 12.7539C5.93773 14.9608 5.41071 17.4394 5.58271 19.9194C5.75471 22.3994 6.61914 24.7855 8.08166 26.8174C9.54419 28.8493 11.5486 30.449 13.8763 31.4418C16.204 32.4347 18.7655 32.7826 21.2814 32.4476C23.7973 32.1127 26.1708 31.1077 28.1432 29.5423C30.1155 27.977 31.6108 25.9113 32.4659 23.5709C32.8079 22.6299 33.7782 21.9966 34.7763 22.2047L36.584 22.581C37.5821 22.7873 38.229 23.7518 37.924 24.7054C35.4473 32.4104 28.0983 38 19.4075 38C8.689 38 0 29.4934 0 19C0 8.50657 8.689 0 19.4075 0C24.5514 0 28.5604 2.29448 31.4419 4.65952L34.7357 1.43495C34.9942 1.18196 35.3235 1.00969 35.682 0.939897C36.0404 0.870108 36.412 0.905942 36.7497 1.04287C37.0874 1.1798 37.376 1.41167 37.5791 1.70917C37.7822 2.00667 37.8907 2.35645 37.8908 2.71429V12.6667C37.8908 13.1466 37.696 13.6068 37.3494 13.9462C37.0028 14.2855 36.5326 14.4762 36.0424 14.4762H25.8766C25.5111 14.4761 25.1538 14.3699 24.85 14.1711C24.5461 13.9723 24.3092 13.6897 24.1694 13.3591C24.0295 13.0285 23.9929 12.6647 24.0642 12.3138C24.1355 11.9628 24.3114 11.6404 24.5699 11.3873L27.5013 8.51743Z" fill="white"/>
</svg>
