<svg width="60" height="60" viewBox="0 0 60 60" fill="none" xmlns="http://www.w3.org/2000/svg">
<g filter="url(#filter0_d_337_88)">
<rect x="4" width="52" height="52" rx="10" fill="white"/>
</g>
<path d="M18.7127 19.2023L24.3228 24.8124C25.5963 23.7937 27.1429 23.1317 28.8464 22.94V15C24.967 15.2273 21.4446 16.7721 18.7127 19.2023ZM17.318 20.597C14.6822 23.5599 13 27.4485 13 31.7169C13 32.2621 13.4411 32.7032 13.9863 32.7032H19.9698C20.5149 32.7032 20.9561 32.2621 20.9561 31.7169C20.9561 29.6251 21.7133 27.7258 22.9282 26.2071L17.318 20.597ZM37.4532 24.0049C37.1209 23.715 36.6393 23.6774 36.2724 23.9153L27.7127 29.3755C26.5694 30.1055 25.8875 31.349 25.8875 32.7032C25.8875 34.879 27.6568 36.6484 29.8326 36.6484C31.3622 36.6484 32.7665 35.7526 33.4098 34.3666L37.6969 25.1626C37.7869 24.9692 37.8119 24.7519 37.7679 24.5431C37.724 24.3344 37.6136 24.1455 37.4532 24.0049ZM42.3473 20.597L39.4484 23.4959C39.8134 24.2751 39.8614 25.1873 39.4846 25.9957L38.1877 28.78C38.5216 29.6971 38.7092 30.683 38.7092 31.7169C38.7092 32.2621 39.1504 32.7032 39.6955 32.7032H45.679C46.2242 32.7032 46.6653 32.2621 46.6653 31.7169C46.6653 27.4485 44.9831 23.5599 42.3473 20.597ZM30.8189 15V22.94C31.6493 23.0334 32.4405 23.2425 33.1829 23.5462L35.212 22.2518C36.0249 21.725 37.0183 21.6119 38.0528 22.1021L40.9526 19.2023C38.2207 16.7721 34.6983 15.2273 30.8189 15Z" fill="#273F4F"/>
<defs>
<filter id="filter0_d_337_88" x="0" y="0" width="60" height="60" filterUnits="userSpaceOnUse" color-interpolation-filters="sRGB">
<feFlood flood-opacity="0" result="BackgroundImageFix"/>
<feColorMatrix in="SourceAlpha" type="matrix" values="0 0 0 0 0 0 0 0 0 0 0 0 0 0 0 0 0 0 127 0" result="hardAlpha"/>
<feOffset dy="4"/>
<feGaussianBlur stdDeviation="2"/>
<feComposite in2="hardAlpha" operator="out"/>
<feColorMatrix type="matrix" values="0 0 0 0 0 0 0 0 0 0 0 0 0 0 0 0 0 0 0.25 0"/>
<feBlend mode="normal" in2="BackgroundImageFix" result="effect1_dropShadow_337_88"/>
<feBlend mode="normal" in="SourceGraphic" in2="effect1_dropShadow_337_88" result="shape"/>
</filter>
</defs>
</svg>
