<svg width="236" height="183" viewBox="0 0 236 183" fill="none" xmlns="http://www.w3.org/2000/svg">
<path d="M8.36636 175.894C8.67836 175.894 8.93636 175.996 9.14036 176.2C9.35636 176.392 9.46436 176.644 9.46436 176.956C9.46436 177.256 9.35636 177.508 9.14036 177.712C8.93636 177.904 8.67836 178 8.36636 178H2.51636C2.20436 178 1.94036 177.898 1.72436 177.694C1.52036 177.478 1.41836 177.214 1.41836 176.902V166.498C1.41836 166.186 1.52636 165.928 1.74236 165.724C1.95836 165.508 2.23436 165.4 2.57036 165.4C2.85836 165.4 3.11036 165.508 3.32636 165.724C3.55436 165.928 3.66836 166.186 3.66836 166.498V176.2L3.27236 175.894H8.36636ZM13.3798 176.902C13.3798 177.214 13.2778 177.478 13.0738 177.694C12.8698 177.898 12.6118 178 12.2998 178C11.9878 178 11.7298 177.898 11.5258 177.694C11.3218 177.478 11.2198 177.214 11.2198 176.902V169.468C11.2198 169.156 11.3218 168.898 11.5258 168.694C11.7298 168.478 11.9878 168.37 12.2998 168.37C12.6118 168.37 12.8698 168.478 13.0738 168.694C13.2778 168.898 13.3798 169.156 13.3798 169.468V176.902ZM12.2818 167.2C11.8738 167.2 11.5858 167.134 11.4178 167.002C11.2498 166.87 11.1658 166.636 11.1658 166.3V165.958C11.1658 165.61 11.2558 165.376 11.4358 165.256C11.6278 165.124 11.9158 165.058 12.2998 165.058C12.7198 165.058 13.0138 165.124 13.1818 165.256C13.3498 165.388 13.4338 165.622 13.4338 165.958V166.3C13.4338 166.648 13.3438 166.888 13.1638 167.02C12.9838 167.14 12.6898 167.2 12.2818 167.2ZM16.0317 168.37C16.2597 168.37 16.4697 168.43 16.6617 168.55C16.8537 168.658 16.9977 168.826 17.0937 169.054L19.7397 175.102L19.3437 175.282L22.0437 169.072C22.2477 168.592 22.5657 168.364 22.9977 168.388C23.2977 168.388 23.5377 168.484 23.7177 168.676C23.9097 168.856 24.0057 169.084 24.0057 169.36C24.0057 169.444 23.9877 169.534 23.9517 169.63C23.9277 169.726 23.8977 169.816 23.8617 169.9L20.4957 177.316C20.3037 177.748 19.9977 177.976 19.5777 178C19.3497 178.036 19.1277 177.994 18.9117 177.874C18.7077 177.754 18.5517 177.568 18.4437 177.316L15.0957 169.9C15.0717 169.84 15.0417 169.762 15.0057 169.666C14.9817 169.57 14.9697 169.456 14.9697 169.324C14.9697 169.108 15.0657 168.898 15.2577 168.694C15.4497 168.478 15.7077 168.37 16.0317 168.37ZM30.1552 178.18C29.1352 178.18 28.2472 177.97 27.4912 177.55C26.7472 177.118 26.1712 176.536 25.7632 175.804C25.3672 175.072 25.1692 174.244 25.1692 173.32C25.1692 172.24 25.3852 171.322 25.8172 170.566C26.2612 169.798 26.8372 169.21 27.5452 168.802C28.2532 168.394 29.0032 168.19 29.7952 168.19C30.4072 168.19 30.9832 168.316 31.5232 168.568C32.0752 168.82 32.5612 169.168 32.9812 169.612C33.4012 170.044 33.7312 170.548 33.9712 171.124C34.2232 171.7 34.3492 172.312 34.3492 172.96C34.3372 173.248 34.2232 173.482 34.0072 173.662C33.7912 173.842 33.5392 173.932 33.2512 173.932H26.3752L25.8352 172.132H32.4412L32.0452 172.492V172.006C32.0212 171.658 31.8952 171.346 31.6672 171.07C31.4512 170.794 31.1752 170.578 30.8392 170.422C30.5152 170.254 30.1672 170.17 29.7952 170.17C29.4352 170.17 29.0992 170.218 28.7872 170.314C28.4752 170.41 28.2052 170.572 27.9772 170.8C27.7492 171.028 27.5692 171.334 27.4372 171.718C27.3052 172.102 27.2392 172.588 27.2392 173.176C27.2392 173.824 27.3712 174.376 27.6352 174.832C27.9112 175.276 28.2592 175.618 28.6792 175.858C29.1112 176.086 29.5672 176.2 30.0472 176.2C30.4912 176.2 30.8452 176.164 31.1092 176.092C31.3732 176.02 31.5832 175.936 31.7392 175.84C31.9072 175.732 32.0572 175.642 32.1892 175.57C32.4052 175.462 32.6092 175.408 32.8012 175.408C33.0652 175.408 33.2812 175.498 33.4492 175.678C33.6292 175.858 33.7192 176.068 33.7192 176.308C33.7192 176.632 33.5512 176.926 33.2152 177.19C32.9032 177.454 32.4652 177.688 31.9012 177.892C31.3372 178.084 30.7552 178.18 30.1552 178.18ZM50.2813 166.012C50.5933 166.168 50.7733 166.414 50.8213 166.75C50.8813 167.086 50.7973 167.392 50.5693 167.668C50.4133 167.884 50.2093 168.004 49.9573 168.028C49.7173 168.052 49.4713 168.004 49.2193 167.884C48.9313 167.752 48.6253 167.65 48.3013 167.578C47.9893 167.506 47.6593 167.47 47.3113 167.47C46.6633 167.47 46.0813 167.572 45.5653 167.776C45.0613 167.98 44.6293 168.274 44.2693 168.658C43.9093 169.03 43.6333 169.474 43.4413 169.99C43.2613 170.506 43.1713 171.076 43.1713 171.7C43.1713 172.432 43.2733 173.068 43.4773 173.608C43.6933 174.148 43.9873 174.598 44.3593 174.958C44.7313 175.318 45.1693 175.588 45.6733 175.768C46.1773 175.936 46.7233 176.02 47.3113 176.02C47.6353 176.02 47.9593 175.99 48.2833 175.93C48.6073 175.87 48.9193 175.762 49.2193 175.606C49.4713 175.486 49.7173 175.444 49.9573 175.48C50.2093 175.516 50.4193 175.642 50.5873 175.858C50.8273 176.158 50.9113 176.47 50.8393 176.794C50.7793 177.106 50.5993 177.334 50.2993 177.478C49.9873 177.634 49.6633 177.766 49.3273 177.874C49.0033 177.97 48.6733 178.042 48.3373 178.09C48.0013 178.15 47.6593 178.18 47.3113 178.18C46.4473 178.18 45.6253 178.042 44.8453 177.766C44.0773 177.49 43.3873 177.082 42.7753 176.542C42.1753 176.002 41.7013 175.33 41.3533 174.526C41.0053 173.71 40.8313 172.768 40.8313 171.7C40.8313 170.776 40.9873 169.924 41.2993 169.144C41.6233 168.364 42.0733 167.692 42.6493 167.128C43.2373 166.552 43.9273 166.108 44.7193 165.796C45.5113 165.472 46.3753 165.31 47.3113 165.31C47.8393 165.31 48.3553 165.37 48.8593 165.49C49.3633 165.61 49.8373 165.784 50.2813 166.012ZM53.6465 178C53.3345 178 53.0765 177.898 52.8725 177.694C52.6685 177.478 52.5665 177.214 52.5665 176.902V169.468C52.5665 169.156 52.6685 168.898 52.8725 168.694C53.0765 168.478 53.3345 168.37 53.6465 168.37C53.9585 168.37 54.2165 168.478 54.4205 168.694C54.6245 168.898 54.7265 169.156 54.7265 169.468V171.16L54.6005 169.954C54.7325 169.666 54.9005 169.414 55.1045 169.198C55.3205 168.97 55.5605 168.784 55.8245 168.64C56.0885 168.484 56.3705 168.37 56.6705 168.298C56.9705 168.226 57.2705 168.19 57.5705 168.19C57.9305 168.19 58.2305 168.292 58.4705 168.496C58.7225 168.7 58.8485 168.94 58.8485 169.216C58.8485 169.612 58.7465 169.9 58.5425 170.08C58.3385 170.248 58.1165 170.332 57.8765 170.332C57.6485 170.332 57.4385 170.29 57.2465 170.206C57.0665 170.122 56.8565 170.08 56.6165 170.08C56.4005 170.08 56.1785 170.134 55.9505 170.242C55.7345 170.338 55.5305 170.494 55.3385 170.71C55.1585 170.926 55.0085 171.196 54.8885 171.52C54.7805 171.832 54.7265 172.204 54.7265 172.636V176.902C54.7265 177.214 54.6245 177.478 54.4205 177.694C54.2165 177.898 53.9585 178 53.6465 178ZM62.4052 176.902C62.4052 177.214 62.3032 177.478 62.0992 177.694C61.8952 177.898 61.6372 178 61.3252 178C61.0132 178 60.7552 177.898 60.5512 177.694C60.3472 177.478 60.2452 177.214 60.2452 176.902V169.468C60.2452 169.156 60.3472 168.898 60.5512 168.694C60.7552 168.478 61.0132 168.37 61.3252 168.37C61.6372 168.37 61.8952 168.478 62.0992 168.694C62.3032 168.898 62.4052 169.156 62.4052 169.468V176.902ZM61.3072 167.2C60.8992 167.2 60.6112 167.134 60.4432 167.002C60.2752 166.87 60.1912 166.636 60.1912 166.3V165.958C60.1912 165.61 60.2812 165.376 60.4612 165.256C60.6532 165.124 60.9412 165.058 61.3252 165.058C61.7452 165.058 62.0392 165.124 62.2072 165.256C62.3752 165.388 62.4592 165.622 62.4592 165.958V166.3C62.4592 166.648 62.3692 166.888 62.1892 167.02C62.0092 167.14 61.7152 167.2 61.3072 167.2ZM68.9091 168.19C69.5931 168.19 70.1871 168.262 70.6911 168.406C71.2071 168.55 71.6031 168.754 71.8791 169.018C72.1671 169.27 72.3111 169.576 72.3111 169.936C72.3111 170.176 72.2391 170.404 72.0951 170.62C71.9511 170.824 71.7411 170.926 71.4651 170.926C71.2731 170.926 71.1111 170.902 70.9791 170.854C70.8591 170.794 70.7511 170.722 70.6551 170.638C70.5591 170.554 70.4451 170.476 70.3131 170.404C70.1931 170.332 70.0071 170.278 69.7551 170.242C69.5151 170.194 69.3351 170.17 69.2151 170.17C68.6031 170.17 68.0811 170.302 67.6491 170.566C67.2291 170.83 66.9051 171.19 66.6771 171.646C66.4491 172.09 66.3351 172.606 66.3351 173.194C66.3351 173.77 66.4491 174.286 66.6771 174.742C66.9171 175.186 67.2411 175.54 67.6491 175.804C68.0691 176.068 68.5491 176.2 69.0891 176.2C69.3891 176.2 69.6471 176.182 69.8631 176.146C70.0791 176.11 70.2591 176.056 70.4031 175.984C70.5711 175.888 70.7211 175.786 70.8531 175.678C70.9851 175.57 71.1831 175.516 71.4471 175.516C71.7591 175.516 71.9991 175.618 72.1671 175.822C72.3351 176.014 72.4191 176.254 72.4191 176.542C72.4191 176.842 72.2511 177.118 71.9151 177.37C71.5791 177.61 71.1351 177.808 70.5831 177.964C70.0431 178.108 69.4551 178.18 68.8191 178.18C67.8711 178.18 67.0491 177.964 66.3531 177.532C65.6571 177.088 65.1171 176.488 64.7331 175.732C64.3611 174.976 64.1751 174.13 64.1751 173.194C64.1751 172.21 64.3731 171.346 64.7691 170.602C65.1771 169.846 65.7351 169.258 66.4431 168.838C67.1631 168.406 67.9851 168.19 68.9091 168.19ZM75.2366 178C74.9246 178 74.6666 177.898 74.4626 177.694C74.2586 177.478 74.1566 177.214 74.1566 176.902V165.778C74.1566 165.466 74.2586 165.208 74.4626 165.004C74.6666 164.788 74.9246 164.68 75.2366 164.68C75.5486 164.68 75.8066 164.788 76.0106 165.004C76.2146 165.208 76.3166 165.466 76.3166 165.778V176.902C76.3166 177.214 76.2146 177.478 76.0106 177.694C75.8066 177.898 75.5486 178 75.2366 178ZM80.9606 168.37C81.2366 168.37 81.4766 168.484 81.6806 168.712C81.8846 168.94 81.9866 169.162 81.9866 169.378C81.9866 169.666 81.8426 169.936 81.5546 170.188L76.1366 175.174L76.0466 172.69L80.1686 168.712C80.3966 168.484 80.6606 168.37 80.9606 168.37ZM81.2306 177.982C80.9186 177.982 80.6546 177.862 80.4386 177.622L77.1086 174.094L78.7466 172.582L81.9866 176.11C82.2146 176.35 82.3286 176.62 82.3286 176.92C82.3286 177.232 82.2026 177.49 81.9506 177.694C81.7106 177.886 81.4706 177.982 81.2306 177.982ZM88.3564 178.18C87.3364 178.18 86.4484 177.97 85.6924 177.55C84.9484 177.118 84.3724 176.536 83.9644 175.804C83.5684 175.072 83.3704 174.244 83.3704 173.32C83.3704 172.24 83.5864 171.322 84.0184 170.566C84.4624 169.798 85.0384 169.21 85.7464 168.802C86.4544 168.394 87.2044 168.19 87.9964 168.19C88.6084 168.19 89.1844 168.316 89.7244 168.568C90.2764 168.82 90.7624 169.168 91.1824 169.612C91.6024 170.044 91.9324 170.548 92.1724 171.124C92.4244 171.7 92.5504 172.312 92.5504 172.96C92.5384 173.248 92.4244 173.482 92.2084 173.662C91.9924 173.842 91.7404 173.932 91.4524 173.932H84.5764L84.0364 172.132H90.6424L90.2464 172.492V172.006C90.2224 171.658 90.0964 171.346 89.8684 171.07C89.6524 170.794 89.3764 170.578 89.0404 170.422C88.7164 170.254 88.3684 170.17 87.9964 170.17C87.6364 170.17 87.3004 170.218 86.9884 170.314C86.6764 170.41 86.4064 170.572 86.1784 170.8C85.9504 171.028 85.7704 171.334 85.6384 171.718C85.5064 172.102 85.4404 172.588 85.4404 173.176C85.4404 173.824 85.5724 174.376 85.8364 174.832C86.1124 175.276 86.4604 175.618 86.8804 175.858C87.3124 176.086 87.7684 176.2 88.2484 176.2C88.6924 176.2 89.0464 176.164 89.3104 176.092C89.5744 176.02 89.7844 175.936 89.9404 175.84C90.1084 175.732 90.2584 175.642 90.3904 175.57C90.6064 175.462 90.8104 175.408 91.0024 175.408C91.2664 175.408 91.4824 175.498 91.6504 175.678C91.8304 175.858 91.9204 176.068 91.9204 176.308C91.9204 176.632 91.7524 176.926 91.4164 177.19C91.1044 177.454 90.6664 177.688 90.1024 177.892C89.5384 178.084 88.9564 178.18 88.3564 178.18ZM94.5456 168.55H98.8116C99.0996 168.55 99.3396 168.646 99.5316 168.838C99.7236 169.03 99.8196 169.27 99.8196 169.558C99.8196 169.834 99.7236 170.068 99.5316 170.26C99.3396 170.44 99.0996 170.53 98.8116 170.53H94.5456C94.2576 170.53 94.0176 170.434 93.8256 170.242C93.6336 170.05 93.5376 169.81 93.5376 169.522C93.5376 169.246 93.6336 169.018 93.8256 168.838C94.0176 168.646 94.2576 168.55 94.5456 168.55ZM96.4716 166.3C96.7836 166.3 97.0356 166.408 97.2276 166.624C97.4316 166.828 97.5336 167.086 97.5336 167.398V175.408C97.5336 175.576 97.5636 175.714 97.6236 175.822C97.6956 175.93 97.7856 176.008 97.8936 176.056C98.0136 176.104 98.1396 176.128 98.2716 176.128C98.4156 176.128 98.5476 176.104 98.6676 176.056C98.7876 175.996 98.9256 175.966 99.0816 175.966C99.2496 175.966 99.3996 176.044 99.5316 176.2C99.6756 176.356 99.7476 176.572 99.7476 176.848C99.7476 177.184 99.5616 177.46 99.1896 177.676C98.8296 177.892 98.4396 178 98.0196 178C97.7676 178 97.4856 177.982 97.1736 177.946C96.8736 177.898 96.5856 177.796 96.3096 177.64C96.0456 177.472 95.8236 177.22 95.6436 176.884C95.4636 176.548 95.3736 176.086 95.3736 175.498V167.398C95.3736 167.086 95.4756 166.828 95.6796 166.624C95.8956 166.408 96.1596 166.3 96.4716 166.3ZM111.294 178C110.958 178 110.682 177.898 110.466 177.694C110.25 177.478 110.142 177.214 110.142 176.902V166.462H112.482V176.902C112.482 177.214 112.368 177.478 112.14 177.694C111.924 177.898 111.642 178 111.294 178ZM107.316 167.47C107.004 167.47 106.74 167.374 106.524 167.182C106.32 166.99 106.218 166.738 106.218 166.426C106.218 166.114 106.32 165.868 106.524 165.688C106.74 165.496 107.004 165.4 107.316 165.4H115.308C115.62 165.4 115.878 165.496 116.082 165.688C116.298 165.88 116.406 166.132 116.406 166.444C116.406 166.756 116.298 167.008 116.082 167.2C115.878 167.38 115.62 167.47 115.308 167.47H107.316ZM127.669 165.364C127.969 165.364 128.227 165.466 128.443 165.67C128.671 165.862 128.785 166.108 128.785 166.408C128.785 166.564 128.749 166.726 128.677 166.894L124.231 177.298C124.123 177.538 123.967 177.718 123.763 177.838C123.571 177.946 123.373 178 123.169 178C122.977 177.988 122.791 177.928 122.611 177.82C122.431 177.7 122.293 177.532 122.197 177.316L117.751 166.876C117.715 166.804 117.691 166.732 117.679 166.66C117.667 166.576 117.661 166.498 117.661 166.426C117.661 166.078 117.787 165.814 118.039 165.634C118.291 165.442 118.531 165.346 118.759 165.346C119.215 165.346 119.545 165.58 119.749 166.048L123.691 175.318L123.061 175.336L126.679 166.048C126.883 165.592 127.213 165.364 127.669 165.364ZM136.363 173.554C136.051 173.554 135.787 173.452 135.571 173.248C135.367 173.044 135.265 172.786 135.265 172.474C135.265 172.162 135.367 171.91 135.571 171.718C135.787 171.514 136.051 171.412 136.363 171.412H139.495C139.807 171.412 140.065 171.52 140.269 171.736C140.485 171.94 140.593 172.198 140.593 172.51C140.593 172.81 140.485 173.062 140.269 173.266C140.065 173.458 139.807 173.554 139.495 173.554H136.363ZM154.845 175.894C155.157 175.894 155.415 175.996 155.619 176.2C155.835 176.392 155.943 176.644 155.943 176.956C155.943 177.256 155.835 177.508 155.619 177.712C155.415 177.904 155.157 178 154.845 178H148.995C148.683 178 148.419 177.898 148.203 177.694C147.999 177.478 147.897 177.214 147.897 176.902V166.498C147.897 166.186 148.005 165.928 148.221 165.724C148.437 165.508 148.713 165.4 149.049 165.4C149.337 165.4 149.589 165.508 149.805 165.724C150.033 165.928 150.147 166.186 150.147 166.498V176.2L149.751 175.894H154.845ZM159.858 176.902C159.858 177.214 159.756 177.478 159.552 177.694C159.348 177.898 159.09 178 158.778 178C158.466 178 158.208 177.898 158.004 177.694C157.8 177.478 157.698 177.214 157.698 176.902V169.468C157.698 169.156 157.8 168.898 158.004 168.694C158.208 168.478 158.466 168.37 158.778 168.37C159.09 168.37 159.348 168.478 159.552 168.694C159.756 168.898 159.858 169.156 159.858 169.468V176.902ZM158.76 167.2C158.352 167.2 158.064 167.134 157.896 167.002C157.728 166.87 157.644 166.636 157.644 166.3V165.958C157.644 165.61 157.734 165.376 157.914 165.256C158.106 165.124 158.394 165.058 158.778 165.058C159.198 165.058 159.492 165.124 159.66 165.256C159.828 165.388 159.912 165.622 159.912 165.958V166.3C159.912 166.648 159.822 166.888 159.642 167.02C159.462 167.14 159.168 167.2 158.76 167.2ZM162.51 168.37C162.738 168.37 162.948 168.43 163.14 168.55C163.332 168.658 163.476 168.826 163.572 169.054L166.218 175.102L165.822 175.282L168.522 169.072C168.726 168.592 169.044 168.364 169.476 168.388C169.776 168.388 170.016 168.484 170.196 168.676C170.388 168.856 170.484 169.084 170.484 169.36C170.484 169.444 170.466 169.534 170.43 169.63C170.406 169.726 170.376 169.816 170.34 169.9L166.974 177.316C166.782 177.748 166.476 177.976 166.056 178C165.828 178.036 165.606 177.994 165.39 177.874C165.186 177.754 165.03 177.568 164.922 177.316L161.574 169.9C161.55 169.84 161.52 169.762 161.484 169.666C161.46 169.57 161.448 169.456 161.448 169.324C161.448 169.108 161.544 168.898 161.736 168.694C161.928 168.478 162.186 168.37 162.51 168.37ZM176.634 178.18C175.614 178.18 174.726 177.97 173.97 177.55C173.226 177.118 172.65 176.536 172.242 175.804C171.846 175.072 171.648 174.244 171.648 173.32C171.648 172.24 171.864 171.322 172.296 170.566C172.74 169.798 173.316 169.21 174.024 168.802C174.732 168.394 175.482 168.19 176.274 168.19C176.886 168.19 177.462 168.316 178.002 168.568C178.554 168.82 179.04 169.168 179.46 169.612C179.88 170.044 180.21 170.548 180.45 171.124C180.702 171.7 180.828 172.312 180.828 172.96C180.816 173.248 180.702 173.482 180.486 173.662C180.27 173.842 180.018 173.932 179.73 173.932H172.854L172.314 172.132H178.92L178.524 172.492V172.006C178.5 171.658 178.374 171.346 178.146 171.07C177.93 170.794 177.654 170.578 177.318 170.422C176.994 170.254 176.646 170.17 176.274 170.17C175.914 170.17 175.578 170.218 175.266 170.314C174.954 170.41 174.684 170.572 174.456 170.8C174.228 171.028 174.048 171.334 173.916 171.718C173.784 172.102 173.718 172.588 173.718 173.176C173.718 173.824 173.85 174.376 174.114 174.832C174.39 175.276 174.738 175.618 175.158 175.858C175.59 176.086 176.046 176.2 176.526 176.2C176.97 176.2 177.324 176.164 177.588 176.092C177.852 176.02 178.062 175.936 178.218 175.84C178.386 175.732 178.536 175.642 178.668 175.57C178.884 175.462 179.088 175.408 179.28 175.408C179.544 175.408 179.76 175.498 179.928 175.678C180.108 175.858 180.198 176.068 180.198 176.308C180.198 176.632 180.03 176.926 179.694 177.19C179.382 177.454 178.944 177.688 178.38 177.892C177.816 178.084 177.234 178.18 176.634 178.18ZM191.99 178.18C191.15 178.18 190.394 178.078 189.722 177.874C189.05 177.658 188.408 177.286 187.796 176.758C187.64 176.626 187.52 176.476 187.436 176.308C187.352 176.14 187.31 175.972 187.31 175.804C187.31 175.528 187.406 175.288 187.598 175.084C187.802 174.868 188.054 174.76 188.354 174.76C188.582 174.76 188.786 174.832 188.966 174.976C189.422 175.348 189.872 175.63 190.316 175.822C190.772 176.014 191.33 176.11 191.99 176.11C192.434 176.11 192.842 176.044 193.214 175.912C193.586 175.768 193.886 175.582 194.114 175.354C194.342 175.114 194.456 174.844 194.456 174.544C194.456 174.184 194.348 173.878 194.132 173.626C193.916 173.374 193.586 173.164 193.142 172.996C192.698 172.816 192.134 172.678 191.45 172.582C190.802 172.486 190.232 172.342 189.74 172.15C189.248 171.946 188.834 171.694 188.498 171.394C188.174 171.082 187.928 170.722 187.76 170.314C187.592 169.894 187.508 169.426 187.508 168.91C187.508 168.13 187.706 167.464 188.102 166.912C188.51 166.36 189.056 165.94 189.74 165.652C190.424 165.364 191.18 165.22 192.008 165.22C192.788 165.22 193.508 165.34 194.168 165.58C194.84 165.808 195.386 166.102 195.806 166.462C196.154 166.738 196.328 167.056 196.328 167.416C196.328 167.68 196.226 167.92 196.022 168.136C195.818 168.352 195.578 168.46 195.302 168.46C195.122 168.46 194.96 168.406 194.816 168.298C194.624 168.13 194.366 167.974 194.042 167.83C193.718 167.674 193.376 167.548 193.016 167.452C192.656 167.344 192.32 167.29 192.008 167.29C191.492 167.29 191.054 167.356 190.694 167.488C190.346 167.62 190.082 167.8 189.902 168.028C189.722 168.256 189.632 168.52 189.632 168.82C189.632 169.18 189.734 169.48 189.938 169.72C190.154 169.948 190.46 170.134 190.856 170.278C191.252 170.41 191.726 170.53 192.278 170.638C192.998 170.77 193.628 170.926 194.168 171.106C194.72 171.286 195.176 171.52 195.536 171.808C195.896 172.084 196.166 172.438 196.346 172.87C196.526 173.29 196.616 173.806 196.616 174.418C196.616 175.198 196.4 175.87 195.968 176.434C195.536 176.998 194.966 177.43 194.258 177.73C193.562 178.03 192.806 178.18 191.99 178.18ZM202.784 168.19C203.468 168.19 204.062 168.262 204.566 168.406C205.082 168.55 205.478 168.754 205.754 169.018C206.042 169.27 206.186 169.576 206.186 169.936C206.186 170.176 206.114 170.404 205.97 170.62C205.826 170.824 205.616 170.926 205.34 170.926C205.148 170.926 204.986 170.902 204.854 170.854C204.734 170.794 204.626 170.722 204.53 170.638C204.434 170.554 204.32 170.476 204.188 170.404C204.068 170.332 203.882 170.278 203.63 170.242C203.39 170.194 203.21 170.17 203.09 170.17C202.478 170.17 201.956 170.302 201.524 170.566C201.104 170.83 200.78 171.19 200.552 171.646C200.324 172.09 200.21 172.606 200.21 173.194C200.21 173.77 200.324 174.286 200.552 174.742C200.792 175.186 201.116 175.54 201.524 175.804C201.944 176.068 202.424 176.2 202.964 176.2C203.264 176.2 203.522 176.182 203.738 176.146C203.954 176.11 204.134 176.056 204.278 175.984C204.446 175.888 204.596 175.786 204.728 175.678C204.86 175.57 205.058 175.516 205.322 175.516C205.634 175.516 205.874 175.618 206.042 175.822C206.21 176.014 206.294 176.254 206.294 176.542C206.294 176.842 206.126 177.118 205.79 177.37C205.454 177.61 205.01 177.808 204.458 177.964C203.918 178.108 203.33 178.18 202.694 178.18C201.746 178.18 200.924 177.964 200.228 177.532C199.532 177.088 198.992 176.488 198.608 175.732C198.236 174.976 198.05 174.13 198.05 173.194C198.05 172.21 198.248 171.346 198.644 170.602C199.052 169.846 199.61 169.258 200.318 168.838C201.038 168.406 201.86 168.19 202.784 168.19ZM217.194 173.194C217.194 174.178 216.972 175.048 216.528 175.804C216.096 176.548 215.508 177.13 214.764 177.55C214.032 177.97 213.21 178.18 212.298 178.18C211.386 178.18 210.558 177.97 209.814 177.55C209.082 177.13 208.494 176.548 208.05 175.804C207.618 175.048 207.402 174.178 207.402 173.194C207.402 172.21 207.618 171.346 208.05 170.602C208.494 169.846 209.082 169.258 209.814 168.838C210.558 168.406 211.386 168.19 212.298 168.19C213.21 168.19 214.032 168.406 214.764 168.838C215.508 169.258 216.096 169.846 216.528 170.602C216.972 171.346 217.194 172.21 217.194 173.194ZM215.034 173.194C215.034 172.582 214.908 172.054 214.656 171.61C214.416 171.154 214.086 170.8 213.666 170.548C213.258 170.296 212.802 170.17 212.298 170.17C211.794 170.17 211.332 170.296 210.912 170.548C210.504 170.8 210.174 171.154 209.922 171.61C209.682 172.054 209.562 172.582 209.562 173.194C209.562 173.794 209.682 174.322 209.922 174.778C210.174 175.222 210.504 175.57 210.912 175.822C211.332 176.074 211.794 176.2 212.298 176.2C212.802 176.2 213.258 176.074 213.666 175.822C214.086 175.57 214.416 175.222 214.656 174.778C214.908 174.322 215.034 173.794 215.034 173.194ZM220.164 178C219.852 178 219.594 177.898 219.39 177.694C219.186 177.478 219.084 177.214 219.084 176.902V169.468C219.084 169.156 219.186 168.898 219.39 168.694C219.594 168.478 219.852 168.37 220.164 168.37C220.476 168.37 220.734 168.478 220.938 168.694C221.142 168.898 221.244 169.156 221.244 169.468V171.16L221.118 169.954C221.25 169.666 221.418 169.414 221.622 169.198C221.838 168.97 222.078 168.784 222.342 168.64C222.606 168.484 222.888 168.37 223.188 168.298C223.488 168.226 223.788 168.19 224.088 168.19C224.448 168.19 224.748 168.292 224.988 168.496C225.24 168.7 225.366 168.94 225.366 169.216C225.366 169.612 225.264 169.9 225.06 170.08C224.856 170.248 224.634 170.332 224.394 170.332C224.166 170.332 223.956 170.29 223.764 170.206C223.584 170.122 223.374 170.08 223.134 170.08C222.918 170.08 222.696 170.134 222.468 170.242C222.252 170.338 222.048 170.494 221.856 170.71C221.676 170.926 221.526 171.196 221.406 171.52C221.298 171.832 221.244 172.204 221.244 172.636V176.902C221.244 177.214 221.142 177.478 220.938 177.694C220.734 177.898 220.476 178 220.164 178ZM231.02 178.18C230 178.18 229.112 177.97 228.356 177.55C227.612 177.118 227.036 176.536 226.628 175.804C226.232 175.072 226.034 174.244 226.034 173.32C226.034 172.24 226.25 171.322 226.682 170.566C227.126 169.798 227.702 169.21 228.41 168.802C229.118 168.394 229.868 168.19 230.66 168.19C231.272 168.19 231.848 168.316 232.388 168.568C232.94 168.82 233.426 169.168 233.846 169.612C234.266 170.044 234.596 170.548 234.836 171.124C235.088 171.7 235.214 172.312 235.214 172.96C235.202 173.248 235.088 173.482 234.872 173.662C234.656 173.842 234.404 173.932 234.116 173.932H227.24L226.7 172.132H233.306L232.91 172.492V172.006C232.886 171.658 232.76 171.346 232.532 171.07C232.316 170.794 232.04 170.578 231.704 170.422C231.38 170.254 231.032 170.17 230.66 170.17C230.3 170.17 229.964 170.218 229.652 170.314C229.34 170.41 229.07 170.572 228.842 170.8C228.614 171.028 228.434 171.334 228.302 171.718C228.17 172.102 228.104 172.588 228.104 173.176C228.104 173.824 228.236 174.376 228.5 174.832C228.776 175.276 229.124 175.618 229.544 175.858C229.976 176.086 230.432 176.2 230.912 176.2C231.356 176.2 231.71 176.164 231.974 176.092C232.238 176.02 232.448 175.936 232.604 175.84C232.772 175.732 232.922 175.642 233.054 175.57C233.27 175.462 233.474 175.408 233.666 175.408C233.93 175.408 234.146 175.498 234.314 175.678C234.494 175.858 234.584 176.068 234.584 176.308C234.584 176.632 234.416 176.926 234.08 177.19C233.768 177.454 233.33 177.688 232.766 177.892C232.202 178.084 231.62 178.18 231.02 178.18Z" fill="white"/>
<path d="M167.913 50.3074C170.327 47.5238 175.902 48.0669 179.165 48.7119C181.987 49.2551 184.741 50.0019 187.46 50.9524C189.024 51.1561 190.588 51.258 191.845 51.1901C192.185 52.6498 192.321 54.1774 191.879 55.6032C191.437 57.029 190.384 58.319 189.16 58.7263C181.273 59.1677 173.284 56.0106 167.913 50.3074Z" fill="#F04A44"/>
<path d="M177.67 55.6711C176.48 54.6526 175.596 53.3287 175.052 51.9029C174.916 51.5635 174.814 51.224 174.848 50.8506C174.882 50.5111 175.12 50.1377 175.46 50.0358C175.868 49.9 176.31 50.1716 176.548 50.5111C176.854 50.9524 176.922 51.5295 177.16 52.0387C177.398 52.514 177.976 52.9553 178.486 52.7177C178.724 52.6158 178.86 52.3782 179.03 52.2085C179.2 52.0387 179.472 51.869 179.676 51.9708C179.914 52.0727 179.982 52.3103 179.982 52.5819C179.982 52.8195 179.914 53.0571 179.914 53.2948C179.948 53.8719 180.458 54.3471 180.967 54.5848C181.511 54.8224 182.089 54.8903 182.633 55.1619C183.177 55.4334 183.653 55.9087 183.619 56.4858C183.585 56.9611 183.211 57.4024 182.769 57.5721C182.327 57.7418 181.817 57.7418 181.307 57.6739C179.846 57.4024 178.622 56.5197 177.67 55.6711Z" fill="black"/>
<path d="M196.571 48.8138C197.964 50.0359 198.168 52.1745 197.488 53.9059C196.809 55.6032 195.415 56.9271 194.021 58.1153C193.613 58.4548 193.171 58.7942 192.627 58.8282C192.083 58.8621 191.505 58.3869 191.641 57.9795C191.063 58.0474 190.418 57.7079 190.18 57.1648C189.942 56.6216 190.078 55.9427 190.418 55.6711C189.568 54.6187 189.602 53.0232 190.248 51.8011C190.893 50.579 192.015 49.7303 193.205 49.0514C193.715 48.7459 194.259 48.5083 194.837 48.4064C195.347 48.3046 196.027 48.3385 196.571 48.8138Z" fill="#FFAF2E"/>
<path d="M197.319 50.1377C197.387 51.5974 196.639 53.0232 195.517 53.9398C194.396 54.8903 192.968 55.3656 191.506 55.5013C191.574 55.9087 191.846 56.2482 192.22 56.384C192.594 56.5198 193.036 56.4519 193.342 56.2142C192.968 56.5877 192.662 57.0969 192.186 57.3345C191.676 57.6061 190.962 57.4703 190.588 57.029C190.214 56.5877 190.146 55.9087 190.452 55.3995C190.044 55.0261 190.078 54.3132 190.35 53.8379C190.656 53.3627 191.132 53.0572 191.608 52.7516C193.444 51.6993 195.347 50.8166 197.319 50.1377Z" fill="#291A1A"/>
<path d="M182.802 89.0412C181.408 91.1799 180.457 93.5901 180.083 96.1022C179.947 96.9509 179.879 97.7996 180.049 98.6482C180.219 99.4969 180.661 100.278 181.069 100.583C181.442 101.534 180.083 102.382 180.151 103.401C180.185 103.706 180.355 104.012 180.457 104.317C180.763 105.166 180.627 106.083 180.491 106.931C179.811 111.277 179.097 115.622 178.383 119.288C174.813 122.242 171.244 125.229 167.675 128.182C166.553 129.133 165.397 130.083 164.615 131.339C163.833 132.595 163.527 134.225 164.139 135.549C164.751 136.873 166.519 137.687 168.083 136.907C173.726 133.58 179.369 130.287 184.706 127.232C190.893 119.594 195.21 110.462 197.114 100.821C197.318 100.346 197.522 99.8703 197.794 99.2932C197.896 100.278 198.508 101.194 199.46 101.466C199.936 104.555 200.31 107.678 201.091 110.564C202.383 118.575 203.947 126.553 205.715 134.259C206.123 135.583 207.72 136.364 209.658 135.617C210.134 135.074 210.61 134.53 211.358 133.818C212.208 121.902 213.058 109.953 213.907 97.8675C213.194 91.3157 210.95 84.8657 207.278 79.4341C207.278 79.0947 207.278 78.7213 207.143 78.4157C207.041 78.0763 206.803 77.7707 206.463 77.6689C206.191 77.5671 205.851 77.6349 205.545 77.4992C205.171 77.3634 205.001 76.9899 204.763 76.6844C204.525 76.3789 204.117 76.1073 203.437 76.0394C195.482 78.4157 187.29 82.2857 182.802 89.0412Z" fill="#F04A44"/>
<path d="M185.25 91.0102C183.584 93.4883 183.38 96.8491 184.672 99.4969C184.944 100.04 185.25 100.685 184.91 101.16C184.57 101.602 183.822 101.602 183.516 102.077C183.21 102.484 183.414 103.061 183.754 103.469C184.06 103.876 184.502 104.182 184.74 104.623C185.114 105.37 184.842 106.218 184.638 107.033C183.55 110.869 183.244 114.875 183.72 118.847C182.598 119.051 181.239 119.492 181.069 120.612C181.001 121.087 181.137 121.529 181.171 122.004C181.273 123.362 180.355 124.652 179.165 125.297C177.975 125.976 176.547 126.112 175.188 126.078C177.227 123.26 179.233 120.476 181.273 117.659C181.579 117.217 181.918 116.708 181.748 116.199C181.579 115.724 181.035 115.452 180.899 114.977C180.695 114.332 181.307 113.755 181.714 113.212C182.598 112.023 182.564 110.428 182.496 108.968C182.394 106.117 182.258 103.231 182.156 100.38C182.088 98.7162 182.02 97.0188 181.952 95.3554C181.918 94.2351 181.884 93.0809 182.394 92.0965C182.938 91.0441 184.23 90.3652 185.25 91.0102Z" fill="#FFAF2E"/>
<path d="M203.131 77.9744C203.879 78.9589 204.627 79.9434 205.375 80.9278C205.85 81.5389 206.326 82.1499 206.768 82.7949C210.542 88.0907 212.955 94.3709 213.601 100.855C214.519 93.1828 212.139 85.1373 207.074 79.0607C207.074 78.6873 207.108 78.28 207.108 77.9065C206.734 77.3634 205.68 77.7368 205.307 77.1597C205.171 76.956 205.205 76.7184 205.137 76.5147C205.001 75.8697 204.219 75.4284 203.131 77.9744Z" fill="#FFAF2E"/>
<path d="M165.737 132.086C161.079 133.58 157.476 137.891 156.83 142.746C158.768 142.983 160.705 142.983 162.643 143.017C163.459 143.017 164.343 143.017 164.989 142.508C165.635 141.999 165.805 140.811 164.887 140.2C165.907 139.623 166.961 139.012 167.708 138.095C168.456 137.178 168.898 135.922 168.49 134.802C168.116 133.716 167.029 133.037 165.737 132.086Z" fill="#28738F"/>
<path d="M203.981 135.549C203.913 138.095 203.301 140.607 202.451 142.61C205.137 143.017 207.89 143.119 210.61 142.915C211.426 142.848 212.412 142.644 212.514 142.067C212.718 140.675 212.208 139.215 211.154 138.095C211.086 136.907 210.984 135.719 210.576 134.598C210.168 133.478 209.352 132.46 208.264 132.052C207.278 131.713 206.157 131.883 205.341 132.528C204.559 133.173 204.015 134.259 203.981 135.549Z" fill="#28738F"/>
<path d="M202.485 142.61C204.083 142.576 205.647 142.101 207.007 141.252C207.891 140.709 208.74 139.962 209.794 139.826C211.154 139.657 212.548 140.811 212.684 142.237C212.038 142.983 210.984 143.221 210.032 143.323C207.381 143.594 204.763 143.085 202.485 142.61Z" fill="black"/>
<path d="M203.743 139.181C204.423 137.925 205.647 136.975 207.041 136.567C208.434 136.194 209.964 136.364 211.222 137.076C211.154 136.364 211.086 135.617 210.882 134.938C210.644 134.259 210.27 133.58 209.658 133.172C209.318 132.935 208.944 132.799 208.536 132.765C207.109 132.561 205.647 133.444 204.865 134.666C204.049 135.888 203.811 137.382 203.743 139.181Z" fill="black"/>
<path d="M162.677 133.818C162.235 134.802 162.099 135.922 162.405 136.941C162.711 137.959 163.493 138.876 164.513 139.181C165.533 139.487 166.757 139.181 167.402 138.299C167.64 137.993 167.81 137.586 167.742 137.178C167.674 136.669 167.334 136.262 166.961 135.922C165.839 134.904 164.445 134.123 162.677 133.818Z" fill="black"/>
<path d="M156.83 142.712C157.102 142.203 157.68 141.931 158.224 141.897C158.802 141.829 159.346 141.965 159.924 142.033C161.385 142.236 162.881 142.203 164.309 141.897C164.479 141.863 164.649 141.829 164.819 141.897C165.193 142.033 165.159 142.644 164.819 142.881C164.513 143.119 164.071 143.119 163.663 143.085C161.215 142.915 158.768 142.78 156.83 142.712Z" fill="black"/>
<path d="M181.375 121.97C180.525 121.359 179.709 120.748 178.859 120.103C178.723 120.001 178.553 119.899 178.519 119.73C178.451 119.526 178.519 119.288 178.689 119.118C178.859 118.983 179.063 118.915 179.301 118.847C180.049 118.745 180.865 119.051 181.341 119.628C181.783 120.239 181.953 121.087 181.375 121.97Z" fill="black"/>
<path d="M181.782 118.338C183.108 118.915 184.536 119.152 185.964 119.017C186.202 118.983 186.474 118.915 186.507 118.677C186.541 118.541 186.406 118.372 186.27 118.304C186.134 118.236 185.964 118.236 185.828 118.236C184.366 118.168 182.904 118.1 181.782 118.338Z" fill="black"/>
<path d="M179.811 117.727C181.986 117.489 184.094 116.878 186.066 115.927C184.944 115.384 183.584 115.452 182.428 115.859C181.204 116.233 180.184 116.946 179.811 117.727Z" fill="black"/>
<path d="M182.564 101.228C184.264 101.907 186.202 101.975 187.97 101.466C186.44 100.719 184.672 100.447 182.564 101.228Z" fill="black"/>
<path d="M197.76 99.3273C198.1 96.7133 198.27 94.0654 198.236 91.4176C198.236 91.0441 198.1 90.5689 197.726 90.6368C197.556 90.6707 197.454 90.8065 197.352 90.9423C196.91 91.5873 196.57 92.2662 196.332 93.0131C196.026 93.9976 195.822 95.2196 194.904 95.6949C194.463 95.9325 193.953 95.9665 193.511 96.1362C193.035 96.306 192.593 96.6794 192.627 97.1886C192.661 97.7996 193.409 98.0712 194.021 98.1052C194.633 98.1391 195.346 98.1052 195.754 98.5804C195.992 98.852 196.06 99.1915 196.162 99.5309C196.264 99.8704 196.434 100.21 196.74 100.346C196.978 100.448 197.658 100.278 197.76 99.3273Z" fill="black"/>
<path d="M199.494 101.466C202.078 98.9539 206.225 98.1391 209.557 99.497C210.134 99.7347 210.712 100.04 211.154 100.515C211.596 100.991 211.868 101.602 211.8 102.247C211.698 103.129 210.95 103.808 210.202 104.351C208.911 105.302 207.483 106.151 205.919 106.49C204.355 106.83 202.588 106.694 201.296 105.743C200.004 104.827 199.256 103.061 199.494 101.466Z" fill="black"/>
<path d="M206.633 79.9773C205.783 80.8599 204.933 81.7425 204.185 82.727C203.437 83.7115 202.859 84.8317 202.553 86.0199C202.519 86.2236 202.451 86.4273 202.519 86.6309C202.553 86.8346 202.723 87.0044 202.927 87.0383C203.233 87.0722 203.437 86.7328 203.573 86.4612C204.593 84.2546 205.613 82.082 206.633 79.9773Z" fill="black"/>
<path d="M201.771 93.7599C202.791 92.9112 204.117 92.4699 205.443 92.2662C206.769 92.0625 208.095 92.0286 209.42 91.8249C209.862 91.757 210.304 91.6552 210.644 91.3836C210.984 91.112 211.154 90.5689 210.916 90.2294C210.678 89.856 210.168 89.822 209.726 89.856C206.837 89.9918 204.015 91.2478 201.771 93.7599Z" fill="black"/>
<path d="M203.335 76.2432C203.573 77.0579 203.267 77.9745 202.791 78.6874C202.315 79.4003 201.635 79.9434 200.955 80.4866C196.298 84.2207 191.607 87.9549 186.95 91.6891C186.304 92.2323 185.59 92.7754 184.774 93.0131C183.958 93.2507 182.972 93.1149 182.428 92.4699C181.918 91.8589 181.952 90.9423 182.258 90.2294C182.598 89.5165 183.176 88.9394 183.754 88.4302C189.295 83.5758 196.468 81.1316 203.335 76.2432Z" fill="black"/>
<path d="M167.606 131.441C167.3 130.796 166.96 130.151 166.824 129.472C166.654 128.793 166.654 128.047 166.96 127.402C167.13 127.028 167.402 126.723 167.674 126.417C167.912 126.146 168.252 125.908 168.592 125.942C168.864 125.976 169.102 126.213 169.272 126.451C169.612 126.926 169.85 127.503 170.088 128.081C170.292 128.556 170.462 129.065 170.258 129.506C170.122 129.812 169.782 130.016 169.476 130.185C168.796 130.525 168.116 130.796 167.606 131.441Z" fill="black"/>
<path d="M175.187 127.877C174.711 126.858 174.235 125.806 173.76 124.788C173.42 124.075 173.114 123.294 173.318 122.547C173.488 121.936 173.998 121.461 174.473 121.02C175.085 120.476 175.867 119.899 176.615 120.239C177.091 120.442 177.329 120.952 177.567 121.427C177.941 122.242 178.315 123.09 178.689 123.905C178.961 124.516 179.233 125.229 178.927 125.806C178.655 126.281 178.111 126.519 177.567 126.689C176.785 126.926 176.071 127.164 175.187 127.877Z" fill="black"/>
<path d="M166.621 129.846C170.123 127.47 173.896 125.535 177.839 124.041C178.621 123.735 179.471 123.464 180.287 123.532C181.681 123.633 182.837 124.652 183.856 125.602C184.366 126.078 184.91 126.757 184.57 127.368C184.468 127.571 184.264 127.741 184.06 127.877C178.995 131.407 172.332 132.46 166.621 129.846Z" fill="black"/>
<path d="M162.474 133.614C161.658 132.629 162.032 131.068 162.984 130.185C163.901 129.303 165.193 128.963 166.417 128.624C171.482 127.3 176.547 125.942 181.613 124.618C183.074 126.349 185.352 127.334 187.63 127.266C188.48 127.232 189.465 127.096 190.009 127.741C190.689 128.522 190.111 129.744 189.431 130.559C187.018 133.41 183.55 135.175 179.981 136.194C176.377 137.212 172.638 137.484 168.933 137.755C167.607 137.857 166.213 137.925 165.057 137.314C163.527 136.533 163.222 134.53 162.474 133.614Z" fill="#9C5C43"/>
<path d="M164.173 131.679C166.722 130.457 169.544 129.71 172.4 129.54C172.876 129.506 173.385 129.506 173.725 129.846C174.031 130.117 174.099 130.559 174.167 130.966C174.303 131.95 174.439 132.969 174.609 133.953C174.643 134.191 174.677 134.429 174.541 134.632C174.303 134.972 173.725 134.836 173.453 134.53C173.181 134.225 173.079 133.784 172.876 133.41C172.332 132.494 171.108 132.188 170.054 132.29C169 132.392 167.98 132.833 166.926 133.037C165.839 133.207 164.615 133.071 164.173 131.679Z" fill="#C78F79"/>
<path d="M179.062 130.389C179.538 131.645 180.184 132.833 180.932 133.953C181.068 134.123 181.204 134.327 181.374 134.429C181.578 134.53 181.816 134.53 181.986 134.395C182.156 134.225 182.122 133.919 182.054 133.682C181.646 132.222 180.626 131 179.062 130.389Z" fill="#C78F79"/>
<path d="M181.307 127.945C182.191 129.574 184.026 130.593 185.896 130.525C186.202 130.491 186.542 130.457 186.814 130.321C187.086 130.185 187.324 129.88 187.324 129.574C187.358 129.167 187.018 128.793 186.644 128.658C186.27 128.522 185.862 128.488 185.454 128.488C185.046 128.488 184.638 128.488 184.264 128.352C183.89 128.216 183.618 127.911 183.312 127.639C183.006 127.368 182.7 127.13 182.292 127.028C181.885 126.926 181.443 127.062 181.307 127.945Z" fill="#C78F79"/>
<path d="M179.641 127.232C180.151 128.386 180.898 129.269 181.68 129.948C182.462 130.627 183.244 131.17 184.026 131.849C184.366 132.154 184.74 132.595 184.706 133.139C184.706 133.546 184.434 133.818 184.196 133.818C183.924 133.818 183.652 133.614 183.414 133.376C181.816 132.018 180.456 129.982 179.641 127.232Z" fill="black"/>
<path d="M177.396 129.201C178.178 131.034 179.096 132.765 180.116 134.361C180.286 134.666 180.49 134.972 180.592 135.345C180.694 135.719 180.626 136.194 180.388 136.262C180.15 136.33 179.912 136.024 179.742 135.752C178.552 133.817 177.668 131.407 177.396 129.201Z" fill="black"/>
<path d="M175.289 128.725C175.867 131.102 176.445 133.478 177.023 135.888C177.091 136.16 177.159 136.499 177.023 136.669C176.955 136.805 176.819 136.771 176.683 136.669C176.581 136.567 176.479 136.398 176.411 136.228C175.935 135.175 175.731 133.919 175.629 132.731C175.493 131.543 175.425 130.321 175.289 128.725Z" fill="black"/>
<path d="M201.806 137.721C201.228 138.061 201.364 139.011 201.907 139.351C202.485 139.69 203.233 139.487 203.709 139.045C204.423 138.366 204.627 137.348 205.103 136.499C206.123 134.802 208.536 134.157 210.236 135.141C211.188 135.685 211.868 136.601 212.684 137.348C213.5 138.095 214.588 138.706 215.267 138.502C215.811 137.721 215.879 136.703 215.641 135.753C215.403 134.802 214.995 133.953 214.69 133.071C213.67 130.253 213.738 127.198 213.84 124.244C214.044 116.674 214.248 109.104 214.214 101.602C212.072 99.8704 209.216 99.0557 206.463 99.4291C203.743 99.8025 201.16 101.33 199.664 103.571C198.61 104.08 198.61 105.54 198.746 106.728C199.086 109.342 199.426 111.99 199.766 114.603C200.752 121.936 201.67 129.303 201.806 137.721Z" fill="#9C5C43"/>
<path d="M206.293 117.93C206.327 117.353 207.006 116.946 207.584 117.048C208.162 117.149 208.604 117.693 208.774 118.236C208.978 118.779 208.944 119.39 208.944 120.001C208.842 123.158 208.672 126.349 208.366 129.506C208.366 129.642 208.332 129.812 208.264 129.914C208.06 130.185 207.618 130.151 207.38 129.914C207.142 129.676 207.04 129.336 206.972 128.997C206.225 125.297 206.123 121.563 206.293 117.93Z" fill="#C78F79"/>
<path d="M201.839 122.038C201.669 121.291 201.771 120.51 202.145 119.831C203.097 120.442 203.335 121.698 203.471 122.819C203.777 125.297 204.083 127.809 204.355 130.287C204.389 130.593 204.321 131.034 204.015 131.068C203.743 131.068 203.607 130.728 203.573 130.491C202.995 127.537 202.451 124.584 201.839 122.038Z" fill="#C78F79"/>
<path d="M211.595 127.979C211.595 126.451 211.731 124.957 212.037 123.464C212.105 123.158 212.275 122.751 212.581 122.785C212.921 122.819 213.023 123.26 213.023 123.599C212.989 126.112 212.989 128.658 212.955 131.17C212.955 131.407 212.921 131.679 212.717 131.815C212.547 131.916 212.343 131.849 212.173 131.713C212.037 131.577 211.935 131.407 211.867 131.204C211.527 130.219 211.595 129.201 211.595 127.979Z" fill="#C78F79"/>
<path d="M201.329 105.234C202.383 104.148 203.81 103.571 205.272 103.265C206.734 102.994 208.23 102.994 209.726 102.96C210.1 102.96 210.473 102.96 210.813 102.79C211.153 102.654 211.425 102.349 211.459 101.975C211.493 101.33 210.745 100.991 210.1 100.855C207.652 100.38 205.034 100.787 202.859 102.009C202.281 102.315 201.737 102.722 201.431 103.265C201.159 103.91 201.159 104.657 201.329 105.234Z" fill="#C78F79"/>
<path d="M202.043 109.206C204.763 109.002 207.414 108.561 210.032 107.882C208.876 106.897 207.21 106.728 205.748 107.033C204.287 107.373 202.961 108.12 202.043 109.206Z" fill="#C78F79"/>
<path d="M203.233 113.246C205.239 113.11 207.245 112.974 209.25 112.838C209.454 112.838 209.658 112.804 209.726 112.601C209.828 112.397 209.59 112.193 209.42 112.057C208.503 111.514 207.415 111.412 206.361 111.582C205.341 111.752 204.355 112.159 203.233 113.246Z" fill="#C78F79"/>
<path d="M210.678 108.697C210.95 108.561 211.256 108.425 211.562 108.391C211.868 108.323 212.207 108.357 212.479 108.527C212.717 108.663 212.887 108.968 212.819 109.206C212.717 109.511 212.377 109.681 212.038 109.681C211.46 109.681 210.882 109.409 210.678 108.697Z" fill="#C78F79"/>
<path d="M212.955 119.696C212.921 119.39 213.023 119.051 213.091 118.745C213.159 118.44 213.193 118.1 213.091 117.795C212.989 117.489 212.649 117.251 212.343 117.319C212.037 117.387 211.867 117.727 211.765 117.998C211.425 119.017 211.459 120.171 211.833 121.189C211.901 121.359 212.003 121.563 212.173 121.563C212.377 121.563 212.479 121.359 212.547 121.189C212.751 120.714 212.989 120.205 212.955 119.696Z" fill="#C78F79"/>
<path d="M204.015 132.833C204.423 134.021 204.253 135.413 203.539 136.465C203.437 136.635 203.267 136.805 203.063 136.805C202.791 136.771 202.655 136.431 202.621 136.16C202.519 135.515 202.451 134.87 202.587 134.225C202.689 133.614 203.063 133.003 204.015 132.833Z" fill="#C78F79"/>
<path d="M166.484 135.854C166.688 136.398 167.266 136.703 167.844 136.771C168.422 136.839 169 136.669 169.544 136.499C169.782 136.431 170.054 136.33 170.054 136.092C170.054 135.854 169.782 135.719 169.544 135.685C168.592 135.481 167.572 135.481 166.484 135.854Z" fill="#C78F79"/>
<path d="M200.751 108.629C201.805 106.999 203.403 105.777 205.238 105.098C207.04 104.453 209.08 104.385 210.949 104.962C211.425 105.098 212.003 105.472 211.867 105.947C211.731 106.456 211.017 106.456 210.507 106.388C207.176 105.947 203.709 106.592 200.751 108.629Z" fill="black"/>
<path d="M201.058 112.295C202.383 110.666 204.389 109.613 206.463 109.444C208.536 109.24 210.712 109.919 212.174 111.446C208.638 110.021 204.423 110.36 201.058 112.295Z" fill="black"/>
<path d="M202.213 115.486C205.17 113.11 209.624 112.77 212.853 114.739C208.944 114.094 204.83 114.502 202.213 115.486Z" fill="black"/>
<path d="M204.117 117.183C204.661 122.683 205.171 128.182 205.715 133.682C206.157 127.911 205.545 122.038 204.117 117.183Z" fill="black"/>
<path d="M210.746 117.15C210.304 122.649 209.896 128.148 209.454 133.682C210.882 128.047 211.29 122.174 210.746 117.15Z" fill="black"/>
<path d="M159.72 68.2654C160.127 61.9852 162.711 55.9087 166.96 51.2579C168.286 49.7982 170.122 48.3724 172.06 48.7458C173.827 49.0853 174.983 50.7147 176.173 52.0726C177.839 53.9397 179.878 55.3995 181.884 56.8592C184.876 59.0318 187.867 61.1705 190.825 63.4789C192.796 63.9202 194.428 65.4818 194.734 67.0094C196.366 67.6544 197.59 69.182 197.352 70.7775C198.746 70.506 200.275 71.0152 201.227 72.0675C201.737 72.6786 202.077 73.3915 202.587 74.0365C203.063 74.6815 203.777 75.2246 204.355 75.2246C204.627 75.9036 204.423 76.6843 203.981 77.2954C203.539 77.8725 202.927 78.3138 202.315 78.7212C200.241 80.1469 198.168 81.5388 196.094 82.9306C192.389 85.4427 188.649 87.9887 184.638 90.0256C183.856 90.4329 183.04 90.8064 182.19 90.9082C181.34 91.01 180.388 90.8064 179.776 90.1614C179.199 89.5164 179.131 88.3961 179.946 87.6493C178.689 87.4456 177.669 86.4611 176.887 85.4427C176.105 84.4243 175.459 83.2701 174.201 82.2856C171.074 80.6222 167.912 78.9588 165.261 76.6504C162.609 74.308 159.516 71.3207 159.72 68.2654Z" fill="#28738F"/>
<path d="M171.38 48.3385C166.348 53.3627 168.864 55.9427 164.139 63.3771C163.085 65.0405 161.589 68.605 159.923 69.6573C159.142 66.7379 160.501 63.2413 161.657 60.4576C162.711 57.9795 163.731 55.4674 165.261 53.2608C166.756 51.0203 168.762 49.0514 171.38 48.3385Z" fill="#FFAF2E"/>
<path d="M174.916 58.4888C175.187 57.3346 176.309 56.4519 177.499 56.384C178.689 56.3501 179.845 57.0969 180.321 58.1832C180.797 59.2696 180.525 60.6274 179.709 61.4761C179.267 61.9514 178.689 62.2569 178.043 62.2909C177.329 62.3248 176.649 61.9514 176.139 61.4761C175.187 60.6614 174.678 59.4053 174.916 58.4888Z" fill="#FFAF2E"/>
<path d="M187.357 60.8311C187.154 63.9881 187.222 69.1481 185.08 71.4565C182.938 73.7649 177.227 76.277 174.168 77.2615C176.071 77.0918 177.975 76.922 179.879 76.7523C180.083 76.7523 180.321 76.7523 180.355 76.922C180.389 77.0578 180.253 77.2275 180.117 77.3294C179.131 78.1441 178.145 78.9249 177.159 79.7396C180.049 78.9249 182.904 78.0762 185.794 77.2615C185.998 77.1936 186.236 77.1596 186.372 77.2954C186.61 77.4991 186.372 77.8725 186.168 78.0762C183.448 80.8599 179.437 82.3536 175.527 82.0141C171.652 81.6746 167.131 79.2983 164.955 76.0394C164.717 75.666 165.295 75.3944 165.499 74.987C165.635 74.7494 165.873 74.6136 166.077 74.5118C172.57 71.0152 180.321 64.3955 187.357 60.8311Z" fill="black"/>
<path d="M174.168 65.8552C172.23 65.0066 170.19 64.4295 168.116 64.09C167.845 64.056 167.539 64.0221 167.267 64.1239C166.995 64.2597 166.859 64.5992 167.029 64.8368C167.301 65.1763 168.048 64.8708 168.184 65.2781C168.286 65.4818 168.082 65.7194 167.879 65.8213C167.641 65.8892 167.403 65.8552 167.199 65.8213C166.179 65.7194 165.159 66.0929 164.445 66.8058C164.241 67.0094 164.071 67.281 164.207 67.5186C164.343 67.7563 164.649 67.7563 164.921 67.7223C168.014 67.4847 171.074 66.8736 174.168 65.8552Z" fill="black"/>
<path d="M175.459 61.0008C174.371 58.4548 173.759 55.6711 173.657 52.8874C173.895 52.6498 174.337 52.7517 174.541 52.9893C174.745 53.2269 174.813 53.6003 174.847 53.9398C175.085 56.2482 175.289 58.5227 175.459 61.0008Z" fill="black"/>
<path d="M193.816 67.4847C193.034 71.0152 191.946 74.4439 190.552 77.7707C190.45 78.0084 190.314 78.2799 190.077 78.3478C189.805 78.4497 189.465 78.212 189.363 77.9405C189.261 77.6689 189.261 77.3634 189.329 77.0578C189.805 73.5273 191.232 70.1666 193.816 67.4847Z" fill="black"/>
<path d="M190.519 76.8882C192.218 76.4468 193.85 75.6661 195.278 74.6137C195.516 74.444 195.754 74.2063 195.72 73.9348C195.686 73.6971 195.448 73.5274 195.21 73.4934C194.972 73.4595 194.734 73.5613 194.496 73.6292C192.66 74.3082 190.994 75.3945 190.519 76.8882Z" fill="black"/>
<path d="M180.15 87.5814C184.026 85.6804 187.901 83.7794 191.777 81.8783C192.015 81.7765 192.253 81.5389 192.151 81.3352C192.083 81.1994 191.879 81.1654 191.709 81.1994C186.881 81.4031 182.224 84.017 180.15 87.5814Z" fill="black"/>
<path d="M149.963 56.5537C150.813 58.4887 152.173 60.22 153.906 61.4421C154.484 61.8495 155.164 62.2229 155.878 62.155C156.592 62.0871 157.272 61.3742 157.068 60.5934C155.334 59.2355 153.906 57.5042 152.954 55.5353C154.824 52.8535 157.476 50.6809 160.807 49.289C162.371 50.6809 163.697 52.8195 164.275 54.8564C164.717 54.5508 164.887 53.6343 164.989 53.0911C165.091 52.5479 165.023 52.0048 164.955 51.4616C164.309 49.4927 162.813 47.8632 160.841 46.9127C158.394 47.6935 156.048 48.7798 154.076 50.4093C152.105 52.0387 150.507 54.1435 149.963 56.5537Z" fill="black"/>
<path d="M157.85 60.3897C159.38 60.831 160.57 62.2908 160.706 63.8863C162.473 63.411 164.173 62.7321 165.805 61.8834C166.417 61.5779 167.029 61.2044 167.369 60.6273C167.879 59.8126 167.709 58.7263 167.233 57.9116C166.757 57.0629 166.009 56.4518 165.295 55.9766C164.309 55.6032 163.731 54.6526 163.153 53.804C161.488 53.5324 159.686 54.2113 158.598 55.4674C157.544 56.7913 157.204 58.6584 157.85 60.3897Z" fill="#9C5C43"/>
<path d="M159.822 61.7137C160.366 62.2569 161.046 62.4605 161.828 62.5963C162.678 62.7321 164.14 62.5284 164.718 62.0532C165.601 61.3403 165.805 59.5411 165.635 58.3869C165.499 57.2327 164.582 56.1803 164.276 55.0601C162.576 57.0969 161.046 59.2356 159.822 61.7137Z" fill="black"/>
<path d="M150.541 53.9398C151.629 55.6711 152.819 57.3684 154.28 58.7603C155.742 60.1861 157.544 61.3063 159.516 61.7816C160.773 62.0871 162.167 62.0532 163.187 61.2724C163.833 60.8311 164.275 60.0842 164.513 59.3034C164.717 58.5226 164.717 57.7079 164.649 56.9271C164.411 54.7206 163.561 52.5819 162.337 50.7148C161.861 50.0019 161.351 49.323 160.739 48.7459C158.802 47.0146 155.708 46.709 153.464 47.999C151.221 49.3569 149.555 52.3443 150.541 53.9398Z" fill="#9C5C43"/>
<path d="M156.491 57.0629C156.847 57.0629 157.137 56.7742 157.137 56.4179C157.137 56.0617 156.847 55.7729 156.491 55.7729C156.134 55.7729 155.845 56.0617 155.845 56.4179C155.845 56.7742 156.134 57.0629 156.491 57.0629Z" fill="black"/>
<path d="M160.196 54.9243C160.552 54.9243 160.842 54.6355 160.842 54.2793C160.842 53.923 160.552 53.6343 160.196 53.6343C159.839 53.6343 159.55 53.923 159.55 54.2793C159.55 54.6355 159.839 54.9243 160.196 54.9243Z" fill="black"/>
<path d="M158.326 54.1774C158.496 54.3132 158.734 54.2792 158.904 54.1435C159.074 54.0077 159.176 53.8379 159.244 53.6342C159.516 53.0911 159.788 52.5819 160.026 52.0727C160.128 51.835 160.23 51.5635 160.094 51.3598C159.992 51.224 159.754 51.1901 159.584 51.2579C159.414 51.3258 159.278 51.4616 159.176 51.5974C158.666 52.2764 158.326 53.0911 158.326 54.1774Z" fill="black"/>
<path d="M153.601 56.0105C154.654 55.6371 155.776 55.4334 156.898 55.3655C156.966 55.6371 156.728 55.9086 156.524 56.0444C156.15 56.316 155.674 56.4178 155.198 56.3839C154.722 56.3839 154.28 56.1463 153.601 56.0105Z" fill="black"/>
<path d="M158.258 55.8408C158.088 56.0445 158.088 56.35 158.122 56.5877C158.19 56.8592 158.292 57.0629 158.462 57.3005C158.802 57.8437 159.21 58.3529 159.686 58.7603C159.992 58.5905 160.298 58.3869 160.536 58.1492C159.992 57.1987 159.21 56.35 158.258 55.8408Z" fill="black"/>
<path d="M160.06 59.7108C160.332 59.4392 160.603 59.2015 160.875 58.93C161.249 58.5566 161.691 58.1831 162.201 58.1152C162.303 58.1152 162.439 58.1152 162.507 58.1492C162.609 58.1831 162.677 58.285 162.677 58.4208C162.677 58.5226 162.609 58.6244 162.541 58.6923C162.371 58.93 162.201 59.1336 162.065 59.3713C161.895 59.6089 161.691 59.8805 161.419 59.9823C161.181 60.0502 160.943 60.0502 160.739 59.9484C160.569 59.8465 160.366 59.7108 160.06 59.7108Z" fill="white"/>
<path d="M161.08 47.0146C161.658 47.2183 162.168 48.5761 161.964 49.1193C161.76 49.6964 161.25 50.1038 160.774 50.4772C158.632 52.2085 156.457 53.9398 154.315 55.6711C153.465 56.35 152.547 57.0629 151.459 57.3006C150.371 57.5382 149.59 57.029 149.318 55.8748C147.55 53.6003 146.326 51.3259 147.38 48.644C148.842 44.842 153.329 42.8051 155.641 42.907C157.986 43.0428 159.686 44.7062 161.08 47.0146Z" fill="#FFAF2E"/>
<path d="M150.541 55.705C153.499 53.125 156.728 50.8166 160.128 48.8477C158.054 48.644 156.014 49.4587 154.348 50.7148C152.717 51.9369 151.425 53.6003 150.541 55.705Z" fill="black"/>
<path d="M157.85 63.1394C157.816 63.1394 157.816 63.1394 157.782 63.1394C155.539 62.1549 153.499 60.7631 151.833 59.0997C151.765 59.0318 151.765 58.93 151.833 58.8621C155.097 54.9242 159.142 51.8689 163.493 49.9679C163.561 49.934 163.663 49.9679 163.697 50.0358C164.989 52.3442 165.533 55.026 165.227 57.64C165.227 57.6739 165.227 57.7079 165.193 57.7418C163.391 59.9484 160.876 61.8155 157.918 63.1055C157.918 63.1394 157.884 63.1394 157.85 63.1394ZM152.173 58.9639C153.771 60.5255 155.743 61.8494 157.85 62.766C160.706 61.476 163.119 59.6768 164.887 57.5381C165.159 55.06 164.649 52.5139 163.459 50.3074C159.278 52.2084 155.369 55.1958 152.173 58.9639Z" fill="white"/>
<path d="M162.032 60.7291C159.04 60.186 156.321 58.6244 154.349 56.35C154.281 56.2821 154.281 56.1802 154.349 56.1123C154.417 56.0444 154.519 56.0444 154.587 56.1123C156.525 58.3189 159.176 59.8465 162.066 60.3557C162.168 60.3897 162.236 60.4576 162.202 60.5594C162.168 60.6952 162.1 60.7291 162.032 60.7291Z" fill="white"/>
<path d="M163.494 59.6089C163.426 59.6089 163.358 59.5749 163.324 59.4731C162.644 56.8591 161.42 54.3471 159.822 52.1405C159.754 52.0726 159.788 51.9707 159.856 51.9029C159.924 51.835 160.026 51.8689 160.094 51.9368C161.726 54.1434 162.95 56.7234 163.63 59.3712C163.664 59.4731 163.596 59.541 163.494 59.5749C163.528 59.6089 163.494 59.6089 163.494 59.6089Z" fill="white"/>
<path d="M153.873 60.6952C153.805 60.6952 153.771 60.6612 153.737 60.6273C153.669 60.5594 153.703 60.4576 153.771 60.3897C156.457 58.5226 159.142 56.6555 161.828 54.7884L164.514 52.9213C164.582 52.8534 164.684 52.8873 164.752 52.9552C164.82 53.0231 164.786 53.125 164.718 53.1929L162.032 55.06C159.346 56.9271 156.661 58.7941 153.975 60.6612C153.941 60.6952 153.907 60.6952 153.873 60.6952Z" fill="white"/>
<path d="M161.658 67.8242C166.587 66.9077 171.483 65.7195 176.446 64.7011C180.797 56.9611 183.347 56.1804 187.46 48.8817C189.194 49.0514 190.622 50.8506 190.486 52.6838C188.446 58.2172 186.406 63.7506 184.673 68.6729C181.273 71.1171 177.67 73.2558 173.93 75.1568C171.143 76.5487 167.811 77.8047 165.024 76.4129C162.678 75.2587 160.672 73.3237 159.992 70.4042C159.72 69.2161 160.468 68.0619 161.658 67.8242Z" fill="#F04A44"/>
<path d="M168.967 74.2742C167.777 74.9192 166.247 75.055 164.922 74.6815C164.378 73.2218 163.902 71.4226 163.63 69.3858C164.82 69.1821 166.044 69.0803 167.301 68.9105C168.151 70.7776 168.729 72.7466 168.967 74.2742Z" fill="white"/>
<path d="M190.554 40.1572C189.67 38.8333 189.194 37.2717 189.432 35.7101C190.588 28.5812 196.401 4.13927 196.537 2.74744C196.877 -0.986754 207.653 1.76297 206.633 5.25953C203.744 15.0363 198.543 31.1273 197.013 38.4599C196.571 39.3425 195.075 41.0738 194.225 40.8701C193.511 43.3483 192.798 45.8264 192.696 48.4064C192.662 49.323 192.662 50.2735 191.982 50.9524C191.642 51.3258 191.064 51.4616 190.622 51.2579C190.01 50.9524 189.874 50.1716 189.908 49.4927C190.01 47.0145 191.166 41.549 190.588 40.2591C190.588 40.1912 190.588 40.1912 190.554 40.1572Z" fill="#C89079"/>
<path d="M189.975 33.3338C189.601 35.4386 190.043 37.6791 191.131 39.4443C192.083 40.1572 194.599 39.8517 195.822 39.4443C197.998 35.4386 198.542 31.5346 199.766 28.0381C199.664 29.5318 199.664 31.297 197.454 37.5433C196.876 39.2067 195.686 40.7004 193.783 41.617C193.681 42.6014 193.409 43.5859 192.831 44.6722C191.913 45.2493 190.655 45.2154 189.703 44.7401C190.145 43.1446 190.451 41.5491 190.553 40.1233C189.159 38.1543 189.024 35.3707 189.975 33.3338Z" fill="black"/>
<path d="M206.259 3.56221C205.443 1.1859 201.296 -0.341718 197.556 0.0656477C197.012 0.133542 195.585 5.19167 195.177 9.09559C195.857 7.33034 197.25 4.61457 197.896 2.88326C200.752 2.64563 203.675 3.39247 206.055 4.98799C204.219 2.84932 201.262 1.89879 198.406 1.79695C198.542 1.52538 198.678 1.2538 198.814 1.01617C201.67 0.88038 204.253 1.86485 206.259 3.56221Z" fill="black"/>
<path d="M179.709 68.4012C178.825 67.6884 178.043 66.8057 177.398 65.8552C177.33 65.7534 177.262 65.6515 177.228 65.5157C177.228 65.38 177.262 65.2442 177.398 65.2102C177.499 65.1763 177.601 65.2102 177.703 65.2781C179.029 65.8892 179.981 67.281 179.709 68.4012Z" fill="black"/>
<path d="M174.304 70.5061C174.236 69.1821 174.474 67.8582 175.018 66.6701C175.188 66.3306 175.46 65.9232 175.834 65.9232C176.174 65.9232 176.412 66.2966 176.446 66.6361C176.48 66.9756 176.31 67.3151 176.174 67.6206C175.596 68.7748 175.052 69.895 174.304 70.5061Z" fill="black"/>
<path d="M177.908 70.3024C177.228 69.5216 176.922 68.4692 177.058 67.4508C177.398 67.5866 177.636 67.9261 177.738 68.2995C177.84 68.639 177.874 69.0124 177.908 69.3858C177.942 69.7592 177.976 70.1326 177.908 70.3024Z" fill="black"/>
<path d="M176.378 64.735C177.534 63.9542 178.826 63.3771 180.151 63.0037C180.253 62.9698 180.389 62.9358 180.491 62.9697C180.593 62.9697 180.729 63.0716 180.763 63.1734C180.831 63.3771 180.627 63.5129 180.457 63.6147C179.267 64.2937 177.908 64.7011 176.378 64.735Z" fill="black"/>
<path d="M185.08 52.6837C185.76 52.7176 186.406 52.9892 186.882 53.4645C187.358 53.9397 187.63 54.5847 187.63 55.2637C187.63 55.7389 187.528 56.2821 187.868 56.6215C188.174 56.9271 188.752 56.8592 189.091 56.5537C189.431 56.2481 189.533 55.7729 189.601 55.3316C189.669 54.7884 189.635 54.2452 189.431 53.77C189.091 52.9552 188.242 52.446 187.358 52.3103C186.508 52.1745 185.59 52.446 185.08 52.6837Z" fill="black"/>
<path d="M185.25 52.7856C184.876 51.1901 185.692 49.5945 186.576 48.2366C186.44 46.1319 186.848 43.9933 187.766 42.0922C188.038 41.5151 188.378 40.938 188.854 40.4967C189.33 40.0554 189.976 39.7838 190.825 40.0214C190.655 40.9041 190.485 41.7867 190.316 42.6693C190.282 42.873 190.248 43.1446 190.451 43.2464C190.553 43.3143 190.723 43.2464 190.825 43.2125C192.049 42.7372 193.239 42.0583 194.055 41.3793C194.667 40.8701 195.517 40.5646 196.299 40.8362C197.046 41.1077 197.556 42.0583 197.114 42.839C197.794 43.2804 197.998 44.2988 197.658 44.6382C198.27 45.1475 198.406 46.1659 197.896 46.709C198.78 47.3201 198.848 48.644 198.338 49.5945C197.828 50.5451 196.911 51.1561 196.299 51.6993C194.497 52.9214 192.661 54.1435 190.587 54.7206C190.587 54.9921 190.451 55.2977 190.214 55.4674C189.976 55.6371 189.67 55.705 189.5 55.705C188.752 53.9058 186.848 52.7177 185.25 52.7856Z" fill="#FFAF2E"/>
<path d="M197.013 42.907C195.925 43.7557 194.871 44.6383 193.783 45.487C194.973 45.1135 196.095 44.4346 196.979 43.518C197.183 43.3483 197.353 43.1107 197.013 42.907Z" fill="black"/>
<path d="M187.596 48.7798C189.261 49.9 190.349 51.9029 190.349 53.9058C190.689 53.8719 190.961 53.6003 191.029 53.2608C191.097 52.9213 191.063 52.5819 190.961 52.2763C190.485 50.545 189.159 49.0853 187.596 48.7798Z" fill="black"/>
<path d="M190.01 48.2707C190.452 47.8973 190.894 47.4899 191.336 47.1165C191.506 46.9468 191.71 46.777 191.981 46.7431C192.355 46.6752 192.661 46.9468 192.933 47.2184C193.579 47.9312 194.055 48.7799 194.259 49.7304C194.327 50.1039 194.361 50.5112 194.157 50.8168C193.987 51.0544 193.681 51.1902 193.443 51.292C193.171 51.3939 192.865 51.5296 192.593 51.4618C192.219 51.3939 191.947 51.0544 191.743 50.7489C191.098 49.9681 190.554 49.1194 190.01 48.2707Z" fill="white"/>
<path d="M197.896 46.6411C196.944 47.0145 196.027 47.4558 195.177 47.9311C196.197 47.9311 197.216 47.5237 197.896 46.6411Z" fill="black"/>
<path d="M190.723 40.0894C190.078 40.4628 189.568 41.0059 189.262 41.6849C189.058 42.1262 188.922 42.6354 189.058 43.1107C189.194 43.5859 189.602 43.9933 190.112 44.0272C190.315 42.7372 190.519 41.4472 190.723 40.0894Z" fill="black"/>
<path d="M167.879 33.3339C167.505 35.3708 164.717 36.8984 162.134 36.525C160.57 36.2873 159.244 35.4387 158.53 34.3184C158.054 33.6055 157.85 32.7908 158.02 31.976C158.428 29.9392 161.012 28.3437 163.629 28.4455C165.329 28.5134 166.791 29.7355 167.471 31.1274C167.845 31.8403 168.015 32.621 167.879 33.3339Z" fill="#C89079"/>
<path d="M167.879 33.3339C167.505 35.3707 164.717 36.8983 162.134 36.5249C160.57 36.2873 159.244 35.4386 158.53 34.3184C159.346 34.556 160.196 34.6918 161.08 34.7597C162.27 34.8276 163.528 34.6578 164.581 34.2165C165.805 33.7073 166.791 32.8247 167.233 31.8063C167.335 31.6026 167.403 31.3649 167.471 31.1273C167.845 31.8402 168.015 32.621 167.879 33.3339Z" fill="black"/>
<path d="M161.114 28.8529C160.774 28.9208 160.468 29.0905 160.332 29.3621C160.23 29.5997 160.264 29.9053 160.468 30.1089C159.958 30.3805 159.788 31.0255 160.162 31.4329C159.618 31.8403 159.652 32.621 160.196 33.0284C159.856 33.3 159.788 33.7413 160.026 34.0468C160.128 34.2166 160.332 34.3523 160.4 34.5221C160.468 34.7258 160.4 34.9294 160.434 35.1331C160.468 35.4387 160.706 35.7442 161.08 35.88C160.978 35.9818 160.978 36.1515 161.046 36.2534C161.114 36.3552 161.386 36.4231 161.59 36.4231C161.386 36.2873 161.25 36.0497 161.386 35.8121C161.114 35.7781 160.876 35.6084 160.774 35.4047C160.672 35.201 160.706 34.9294 160.91 34.6579C160.604 34.5221 160.366 34.2505 160.298 33.9789C160.23 33.7074 160.332 33.4018 160.604 33.0624C160.332 32.8587 160.162 32.5871 160.162 32.2816C160.162 31.976 160.298 31.7045 160.57 31.4329C160.366 31.2292 160.298 30.9916 160.332 30.7539C160.366 30.5163 160.536 30.2787 160.876 30.1089C160.672 29.9053 160.672 29.6337 160.74 29.3961C160.774 29.1245 161.012 28.9208 161.114 28.8529Z" fill="#FFB387"/>
<path d="M159.822 29.5319C159.482 29.5998 159.176 29.7355 159.04 29.9732C158.938 30.1769 158.972 30.4145 159.176 30.6182C158.666 30.8558 158.496 31.365 158.87 31.7384C158.326 32.0779 158.36 32.7229 158.904 33.0624C158.598 33.3 158.496 33.6395 158.734 33.945C158.836 34.0808 159.04 34.1826 159.108 34.3524C159.176 34.5221 159.108 34.6918 159.142 34.8955C159.176 35.1671 159.414 35.4047 159.788 35.5405C159.686 35.6424 159.686 35.7442 159.754 35.846C159.822 35.9479 160.094 35.9818 160.298 35.9818C160.094 35.846 159.958 35.6763 160.094 35.4726C159.822 35.4387 159.584 35.3029 159.482 35.1331C159.38 34.9634 159.414 34.7597 159.618 34.4881C159.312 34.3524 159.074 34.1487 159.006 33.911C158.938 33.6734 159.04 33.4018 159.312 33.1303C159.04 32.9605 158.87 32.7229 158.87 32.4853C158.87 32.2476 159.006 32.01 159.278 31.7724C159.108 31.6026 159.006 31.399 159.04 31.1953C159.074 30.9916 159.244 30.7879 159.584 30.6521C159.38 30.4824 159.346 30.2448 159.448 30.0411C159.482 29.7355 159.72 29.5658 159.822 29.5319Z" fill="#FFB387"/>
<path d="M148.637 33.843C130.416 36.3551 113.419 41.0738 101.011 47.1164C117.634 42.2959 134.224 37.5093 148.637 33.843Z" fill="#A6DFFE"/>
<path d="M151.391 35.0312C142.315 36.0157 133.714 39.3425 127.255 44.3328C135.686 40.9041 144.116 37.4754 151.391 35.0312Z" fill="#A6DFFE"/>
<path d="M150.507 32.6209C141.975 29.4299 132.796 28.5133 124.773 30.0409C133.816 30.7878 142.893 31.5346 150.507 32.6209Z" fill="#A6DFFE"/>
<path d="M41.826 82.5912C39.5143 85.7143 38.6305 89.7201 38.6305 93.5901C38.6305 97.4601 39.4124 101.296 40.0922 105.166C39.3444 105.845 39.2084 107.135 39.8203 107.984C39.4803 108.629 39.1404 109.274 38.9024 109.613C32.4094 116.403 27.8881 125.025 25.6445 134.666C25.3725 135.583 25.5085 136.635 25.9844 137.484C26.4603 138.332 27.2762 138.943 28.2961 139.588C34.8231 133.037 40.3982 125.534 44.5456 117.353C45.2595 117.014 45.9733 116.674 46.4833 116.097C46.9932 115.52 47.2651 114.637 46.8572 113.755C48.285 112.465 49.4068 110.869 50.1547 109.104C51.1066 106.796 51.4805 104.08 53.8601 102.62C60.2172 106.252 66.9821 109.07 73.985 110.801C74.155 112.193 75.5828 113.313 77.4185 113.381C75.1749 120.816 79.7981 129.133 77.3165 136.499C78.4384 137.45 79.9001 137.993 81.3959 137.993C82.8577 137.993 84.3534 137.484 85.1013 136.533C85.8152 128.454 86.2232 120.34 86.2232 112.499C86.0872 108.255 83.2316 104.623 80.2061 101.636C69.8717 91.2138 56.1038 84.3564 41.826 82.5912Z" fill="#28738F"/>
<path d="M25.7803 134.938C26.5622 133.648 28.3299 133.037 29.7237 133.58C30.4376 133.851 31.1514 134.429 31.9333 134.225C32.8852 133.987 33.4291 132.629 34.4149 132.765C32.7152 135.311 30.6755 137.62 28.3299 139.555C27.48 138.095 26.6301 136.601 25.7803 134.938Z" fill="black"/>
<path d="M56.5118 96.8829C55.7639 98.8179 55.118 100.889 53.8262 102.518C55.4579 103.774 57.0557 104.521 58.9934 105.2C59.2993 105.302 59.6393 105.37 59.9112 105.2C60.0812 105.064 60.1492 104.793 60.1492 104.555C60.1832 103.435 59.5033 102.281 58.4835 101.805C58.1435 101.636 57.7016 101.466 57.6676 101.092C57.6676 100.651 58.2115 100.481 58.6194 100.312C59.6053 99.9721 60.2852 99.0895 60.9311 98.2408C61.0671 98.0371 61.203 97.7656 61.0671 97.5958C60.9991 97.5279 60.8971 97.494 60.7611 97.46C59.4693 97.1885 58.1775 96.9169 56.5118 96.8829Z" fill="black"/>
<path d="M41.6562 118.711C39.4465 119.424 37.1009 120.239 35.5371 121.97C35.979 122.377 36.6249 122.445 37.1689 122.275C37.7468 122.106 38.2227 121.766 38.6646 121.393C39.7525 120.646 40.7723 119.899 41.6562 118.711Z" fill="black"/>
<path d="M74.3252 110.801C76.8408 110.937 79.3564 110.598 81.7361 109.783C80.5462 109.07 79.0165 108.968 77.6567 109.274C76.2969 109.579 75.0051 110.258 74.3252 110.801Z" fill="black"/>
<path d="M77.1807 113.517C78.8464 112.94 80.4442 112.159 81.9399 111.175C80.1382 110.903 78.2005 111.718 77.1807 113.517Z" fill="black"/>
<path d="M81.5996 114.536C82.4155 115.316 83.7413 115.452 84.6931 114.909C84.8631 114.807 85.0671 114.705 85.237 114.773C85.407 114.841 85.475 115.079 85.441 115.248C85.373 115.418 85.237 115.554 85.0671 115.69C84.1492 116.335 82.8574 116.335 81.5996 114.536Z" fill="black"/>
<path d="M77.7591 127.3C78.201 128.861 79.2209 130.253 80.5466 131.17C80.8866 131.407 81.2265 131.611 81.4645 131.916C81.7025 132.222 81.7705 132.731 81.4985 133.003C81.0566 133.444 80.1047 133.173 79.8328 133.716C79.6968 133.987 79.8668 134.361 80.1047 134.564C80.3427 134.768 80.6826 134.802 80.9886 134.87C82.4504 135.108 83.9461 135.243 85.4419 135.243C85.034 136.431 83.7762 137.212 82.5183 137.382C81.2605 137.552 80.0027 137.28 78.7449 137.009C78.337 136.907 77.8611 136.805 77.5891 136.465C77.2152 135.99 77.3511 135.277 77.4871 134.7C78.099 132.256 78.201 129.676 77.7591 127.3Z" fill="black"/>
<path d="M46.6534 86.563C46.2455 88.1585 45.8375 89.754 45.4296 91.3495C45.3276 91.7569 45.2256 92.1982 45.3956 92.5716C45.7016 93.1827 46.5514 93.2845 47.1973 93.0469C47.8432 92.8432 48.4211 92.4019 49.101 92.3001C50.1209 92.1643 51.0727 92.7753 52.0586 93.0808C54.0643 93.7598 56.2059 93.2506 58.2796 92.9111C59.0615 92.7753 59.9114 92.6735 60.6593 92.9451C61.3052 93.1487 61.8151 93.624 62.393 93.9635C63.5488 94.6085 64.9426 94.6764 66.2344 94.4727C67.5262 94.235 68.75 93.7258 69.9398 93.1827C63.0049 89.2788 55.2881 86.6988 46.6534 86.563Z" fill="black"/>
<path d="M41.9961 83.8132C40.2623 90.1614 40.6023 97.0526 42.608 103.503C41.6561 104.249 41.4861 105.811 42.166 106.897C41.1802 107.339 40.7723 108.73 41.6221 109.783C37.8827 112.77 34.4152 116.097 31.2197 119.967C33.1914 115.282 36.081 111.005 39.7864 107.474C39.4125 107.101 39.2425 106.558 39.3105 106.015C39.3785 105.505 39.6844 104.996 40.2623 104.657C38.1547 99.2592 38.1547 90.0935 40.2283 84.6619C40.7383 83.304 41.1462 85.1032 41.9961 83.8132Z" fill="#FFAF2E"/>
<path d="M39.4463 107.746C40.1262 109.443 40.8061 111.107 41.486 112.804C41.588 113.042 41.7239 113.313 41.9619 113.415C42.2679 113.517 42.6078 113.246 42.6758 112.906C42.7438 112.567 42.6418 112.261 42.5398 111.956C41.9279 110.156 40.9761 108.493 39.4463 107.746Z" fill="black"/>
<path d="M40.126 104.453C40.7039 105.336 41.3158 106.252 42.0977 106.965C42.8796 107.712 43.8314 108.289 44.8852 108.391C45.1232 107.78 44.8852 107.067 44.4773 106.592C44.0354 106.117 43.4575 105.777 42.8796 105.472C41.9277 104.962 40.9758 104.453 40.126 104.453Z" fill="black"/>
<path d="M46.7208 113.551C46.4829 113.483 46.2449 113.449 46.0409 113.313C45.837 113.177 45.667 112.974 45.667 112.736C45.667 112.295 46.1429 112.023 46.5509 111.887C47.3667 111.582 48.2166 111.31 49.0665 111.039C48.6585 111.887 48.0806 112.668 46.7208 113.551Z" fill="black"/>
<path d="M93.4985 142.644C91.7307 142.678 89.963 142.712 88.1953 142.712C84.1159 142.78 80.9884 142.847 76.909 142.915C75.7872 140.743 76.5351 138.095 78.2008 136.296C79.9685 136.737 81.8723 136.669 83.606 136.092C84.3879 135.82 85.1697 135.447 85.9856 135.583C87.0735 135.719 86.9375 135.82 86.5295 136.907C87.6854 137.687 89.3851 139.147 91.7307 138.876C93.1925 138.74 93.9744 141.014 93.4985 142.644Z" fill="#FFAF2E"/>
<path d="M76.6709 142.372C81.3282 142.542 85.9855 142.101 90.5068 141.116C91.2207 140.946 92.0026 140.777 92.6825 141.048C93.3624 141.32 93.9063 142.168 93.3284 142.881C87.8212 143.323 82.2461 143.221 76.6709 143.051C76.7049 142.779 76.637 142.542 76.6709 142.372Z" fill="black"/>
<path d="M23.9108 135.141C25.3046 134.428 27.1063 134.7 28.2281 135.786C29.35 136.873 29.6899 138.672 29.18 140.199C29.6219 141.388 29.8259 142.678 29.6899 143.832C26.8684 143.798 24.0128 143.798 21.0552 143.764C20.8513 142.27 21.0892 140.743 23.9108 135.141Z" fill="#FFAF2E"/>
<path d="M21.0557 143.866C21.9055 142.304 23.6393 141.252 25.441 141.286C27.2087 141.286 28.9425 142.372 29.6563 144.002C26.8688 143.934 24.1152 143.866 21.0557 143.866Z" fill="black"/>
<path d="M75.107 61.1365C76.8408 63.5128 78.3025 66.7038 78.6765 69.5893C79.0844 72.4748 78.9824 75.4282 78.6765 77.8385C79.4244 78.4156 79.7643 79.434 79.2204 80.079C79.5603 80.4524 79.6623 80.9956 79.5943 81.5048C79.5263 82.014 79.3224 82.4892 79.1184 82.9306C78.8125 83.5756 78.4725 84.2545 77.8606 84.6279C77.2487 85.0353 76.4328 85.0353 75.7189 84.8655C73.6792 84.3903 72.0475 82.4553 71.6736 80.3166C69.3619 73.8327 70.2458 65.8891 75.107 61.1365Z" fill="#FFAF2E"/>
<path d="M74.8009 63.7166C76.3647 67.3489 76.1947 71.6941 74.359 75.021C74.9709 74.987 75.5828 74.9531 76.1947 74.9191C76.2967 75.6999 75.5488 76.4807 74.7329 76.4467C75.7188 76.6165 76.6706 77.0917 77.3845 77.8046C76.1947 77.9065 74.9709 78.0423 73.7811 78.1441C75.3788 78.7891 76.7726 80.0112 77.5885 81.5388C75.6848 81.2333 73.7811 80.9278 71.8434 80.6562C70.6196 78.4157 70.3816 75.632 71.1975 73.1878C72.2173 70.2344 74.6649 67.6884 74.8009 63.7166Z" fill="black"/>
<path d="M70.042 81.7424C70.9259 80.9956 71.8777 80.3166 72.9656 79.9432C74.0534 79.5698 75.2772 79.5019 76.3311 79.9093C77.3849 80.3506 78.2688 81.335 78.1668 82.3535C78.7787 81.8782 79.4586 81.4369 80.2405 81.3011C81.0223 81.1653 81.9062 81.4029 82.2801 82.0819C82.6541 82.7269 82.4841 83.6095 82.0082 84.1866C81.5323 84.7637 80.8184 85.1032 80.1725 85.4087C79.9685 85.85 80.2405 86.3932 80.6144 86.6648C81.0223 86.9363 81.4983 87.0042 82.0082 87.0042C82.4841 87.0382 82.994 87.0042 83.436 87.174C83.8779 87.3437 84.3198 87.6832 84.3538 88.1584C84.4218 88.7695 83.9119 89.2447 83.198 89.6182C83.6059 90.1274 83.8439 90.7384 83.9459 91.3834C84.0819 92.1302 83.9459 92.911 83.504 93.4881C83.028 94.0652 82.1782 94.3708 81.3283 94.0652C81.8042 94.7781 81.5323 95.7965 80.8864 96.3397C80.2405 96.8828 79.3226 96.9847 78.4727 96.815C77.6569 96.6452 76.909 96.2379 76.1611 95.7965C74.1214 94.6084 72.1157 93.2844 70.7899 91.3495C69.4641 89.4145 68.9202 86.8005 70.076 84.4242C69.7021 83.6095 69.3281 82.3535 70.042 81.7424Z" fill="#F04A44"/>
<path d="M72.014 81.2672C73.1698 81.1993 74.2576 82.3196 74.1217 83.4738C74.8016 83.5077 75.4814 83.4059 76.1613 83.1683C75.8214 83.6096 75.4814 84.0169 75.1075 84.4583C76.1613 84.6959 77.2492 84.9335 78.303 85.1711C77.8951 86.3932 77.5211 87.6153 77.1132 88.8035C78.235 88.7695 79.3908 88.9053 80.4447 89.2109C79.7308 89.6182 78.9149 89.788 78.099 89.8219C78.9149 90.399 79.8668 90.8403 80.8526 91.0779C80.5467 91.3835 80.0707 91.4514 79.6288 91.3835C79.1869 91.3156 78.8129 91.078 78.405 90.9422C78.541 91.9945 78.9489 93.0129 79.5608 93.8616C78.677 93.5561 77.7931 93.2506 76.9432 93.0129C76.8412 93.59 76.8412 94.1671 77.0112 94.7442C75.6514 95.1177 74.1557 94.6085 73.1358 93.624C72.116 92.6735 71.5381 91.3156 71.2661 89.9577C70.9941 88.5998 70.9941 87.174 70.9941 85.7822C71.0281 84.3564 71.0621 82.7948 72.014 81.2672Z" fill="black"/>
<path d="M48.2173 67.892C51.5488 64.2257 55.9681 61.5778 60.7953 60.3897C65.6226 59.2015 70.7898 59.5071 75.1411 61.1365C76.365 67.926 73.8833 75.2586 68.4442 79.7056C68.4782 80.3167 68.2402 80.9277 67.7643 81.3351C67.3223 81.7425 66.6764 81.9122 65.8946 81.8783C65.1467 84.6619 62.5631 86.6648 59.7755 87.3437C56.9879 88.0227 54.0304 87.5135 51.3108 86.6648C49.5771 86.1217 47.8773 85.4088 46.1096 85.0353C44.3079 84.6619 42.4042 84.594 40.6704 85.3069C40.0245 85.0693 39.5146 84.5261 39.3446 83.8811C39.1407 83.2361 39.3106 82.5233 39.7866 81.7764C39.2427 80.5543 39.5826 79.0946 40.3645 78.0083C41.1464 76.922 42.2682 76.1751 43.0501 75.5301C44.1719 72.5088 46.2456 70.0307 48.2173 67.892Z" fill="#FFAF2E"/>
<path d="M75.1414 60.9668C76.0252 64.3615 75.7193 68.0617 74.2235 71.2188C67.9005 73.6291 61.0675 74.953 54.0306 75.1567C52.8748 73.9346 51.685 72.7125 50.7671 71.3206C49.8493 69.8949 49.2374 68.4351 49.0674 66.7378C52.6368 63.6825 57.1581 60.6273 61.7474 59.6768C66.3707 58.7262 70.994 59.6768 75.1414 60.9668Z" fill="#F04A44"/>
<path d="M48.2859 68.0277C46.3142 70.1324 44.9544 72.8143 44.5465 75.7677C44.1385 75.8695 43.4926 75.9714 43.1527 76.209C42.8127 76.4466 42.5408 76.82 42.5748 77.1934C42.5748 77.6008 42.9827 77.9742 43.3567 77.9063C43.1187 78.2798 42.7447 78.5174 42.3708 78.7211C41.9969 78.9248 41.5889 79.1284 41.283 79.434C40.977 79.7395 40.773 80.1808 40.875 80.5882C40.977 80.9955 41.4869 81.3011 41.8609 81.1313C40.977 82.1497 40.3991 83.4397 40.1951 84.7637C40.1611 84.9674 40.1611 85.171 40.2631 85.3068C40.5011 85.6463 41.045 85.4087 41.4189 85.2389C42.3368 84.7976 43.3906 84.8655 44.4105 84.9674C45.4303 85.0692 46.4502 85.2389 47.436 84.9334C48.4219 84.6279 49.3057 83.7453 49.3057 82.7608C53.1131 85.4766 57.6684 87.14 62.3257 87.5473C61.3399 85.4087 59.6741 83.6434 57.4645 82.4213C59.5042 82.4213 61.5778 82.1837 63.5835 81.6745C62.0878 80.8937 60.49 80.3505 58.8583 80.0111C59.4362 79.0266 60.796 78.9587 61.9518 79.0945C63.0736 79.2303 64.4334 79.2982 65.1473 78.4495C62.9716 77.1256 60.456 76.3787 57.9064 76.3108C57.6684 74.6474 56.9546 73.0519 55.8667 71.728C55.5948 73.9006 53.1471 75.564 51.0395 74.9869C48.8978 74.3419 47.844 71.694 48.2859 68.0277Z" fill="black"/>
<path d="M59.1641 62.7321C59.538 65.312 60.8638 67.7902 62.8015 69.5554C62.9715 69.7252 63.1415 69.861 63.2434 70.0646C63.3454 70.2683 63.3454 70.5399 63.1754 70.7096C63.0055 70.8794 62.7335 70.8794 62.5295 70.7775C62.3256 70.6757 62.1896 70.506 62.0536 70.3023C60.4219 68.1976 59.402 65.5836 59.1641 62.7321Z" fill="black"/>
<path d="M60.626 61.0686C60.796 64.8367 62.8696 68.4351 66.0651 70.438C66.3711 70.6417 66.677 70.8114 67.051 70.8114C67.4249 70.8114 67.7649 70.5399 67.7649 70.2004C67.7649 69.6912 67.085 69.4875 66.6091 69.3517C65.6572 69.0801 64.8753 68.4351 64.2634 67.6883C63.6515 66.9075 63.2436 66.0588 62.8016 65.1762C62.0538 63.6486 61.3059 62.1549 60.626 61.0686Z" fill="black"/>
<path d="M68.4786 68.2315C70.0424 67.1113 71.6741 65.9231 72.796 64.3276C72.9319 64.1579 73.0339 63.9881 73.0679 63.7505C73.1019 63.5129 73.0339 63.3092 72.8639 63.1734C72.728 63.0716 72.592 63.0716 72.422 63.0716C71.5721 63.0037 70.6883 62.9358 69.8384 62.8679C69.4645 62.8339 69.0225 62.8339 68.7166 63.0716C68.4106 63.3092 68.3766 63.7505 68.3426 64.1239C68.2747 64.9047 68.2067 65.6515 68.1387 66.4323C68.1387 67.1792 68.1387 67.96 68.4786 68.2315Z" fill="black"/>
<path d="M71.5721 71.1509C69.6684 72.4409 67.8327 73.8327 66.0649 75.3264C65.861 75.4961 65.657 75.6998 65.555 75.9374C65.453 76.1751 65.555 76.5145 65.793 76.6164C65.9629 76.6843 66.1329 76.6164 66.3029 76.5824C67.4927 76.1411 68.4106 75.1566 69.1924 74.1722C70.0083 73.1538 70.7562 72.1014 71.5721 71.1509Z" fill="black"/>
<path d="M47.5719 68.6048C48.2858 67.213 49.7476 66.2624 51.3113 66.0927C52.8751 65.923 54.4729 66.6019 55.4587 67.7901C56.8865 69.5214 56.9205 71.9656 56.5805 74.1721C56.1386 77.2953 55.0848 80.3505 53.555 83.1002C53.861 82.9984 54.2349 83.3039 54.2349 83.6094C54.2349 83.9489 53.895 84.2205 53.725 84.1865C57.3964 84.9334 60.8639 86.5629 63.7194 88.7355C63.9574 89.8557 63.6175 91.1118 62.5296 91.9944C56.5465 92.1981 50.5635 91.5191 44.7844 90.0594C44.5124 89.4144 44.4104 88.6676 44.3764 87.8528C44.3764 87.4455 44.3764 87.0042 44.3424 86.5629C44.0705 85.85 44.2404 84.9673 44.7844 84.3563C45.0223 79.0945 44.9543 73.5611 47.5719 68.6048Z" fill="#FFAF2E"/>
<path d="M51.3109 69.6572C50.563 69.6572 49.8491 70.0646 49.3732 70.6417C48.8632 71.1849 48.5573 71.8977 48.3193 72.6106C47.9114 73.6969 47.6734 74.919 47.9454 76.0393C48.2173 77.1596 49.1692 78.2119 50.325 78.2798C51.2429 78.3138 52.0927 77.8045 52.6707 77.1256C53.5885 76.0732 54.0304 74.5796 53.8265 73.1877C53.5885 71.762 52.7726 70.472 51.3109 69.6572Z" fill="white"/>
<path d="M53.3167 83.1343C51.0731 84.7298 48.7954 86.2914 46.5518 87.8869C46.6537 86.9364 47.3676 86.1895 48.1155 85.6124C49.6113 84.4243 51.379 83.5416 53.3167 83.1343Z" fill="black"/>
<path d="M53.9627 84.2206C52.7389 85.4427 51.549 86.6987 50.4272 88.0227C50.2572 88.2263 50.0533 88.5658 50.2572 88.7356C50.4272 88.9053 50.6992 88.8034 50.9031 88.7016C51.719 88.2263 52.3989 87.5135 52.9088 86.6987C53.3848 85.884 53.7247 85.0014 53.9627 84.2206Z" fill="black"/>
<path d="M45.8379 84.1527C47.0617 83.7114 48.2855 83.2361 49.5093 82.7948C49.8833 82.659 50.2912 82.4893 50.4952 82.1498C49.6453 81.9122 48.7274 81.9461 47.9116 82.2856C47.0957 82.6251 46.3818 83.1343 45.8379 84.1527Z" fill="black"/>
<path d="M51.6172 82.2177C51.9571 82.2856 52.2971 82.3195 52.637 82.3874C52.773 82.4214 52.909 82.4214 53.011 82.3535C53.113 82.2516 53.147 82.0819 53.079 81.98C53.011 81.8443 52.875 81.7764 52.739 81.7424C52.3311 81.5727 51.8552 81.7424 51.6172 82.2177Z" fill="black"/>
<path d="M61.4751 87.2758C61.1011 87.5134 60.8632 87.9207 60.7612 88.3621C60.6592 88.8034 60.6592 89.2447 60.6932 89.686C60.7272 90.0594 60.7612 90.5007 60.9651 90.8063C61.3391 91.3834 62.121 91.5191 62.8009 91.621C63.0728 91.6549 63.4128 91.6549 63.5827 91.4173C63.7187 91.1797 63.6167 90.9081 63.4808 90.6705C62.8688 89.5163 62.189 88.3621 61.4751 87.2758Z" fill="black"/>
<path d="M49.1016 67.9259C49.9854 67.247 51.1413 66.9415 52.2291 67.0773C53.3169 67.213 54.3708 67.8241 55.0167 68.7407C55.0846 68.8425 55.1526 68.9104 55.2546 68.9104C55.3906 68.8765 55.4246 68.6728 55.3566 68.537C55.0167 67.2809 53.8948 66.2625 52.603 66.0928C51.3452 65.8552 49.9854 66.5002 49.1016 67.9259Z" fill="black"/>
<path d="M66.5401 92.7074C65.7582 93.1826 64.7723 93.3184 63.8885 93.1147C61.8148 91.4513 60.795 88.2263 61.6448 85.3748C62.9706 84.4243 64.8403 84.2206 66.0641 84.8656C67.186 82.8627 68.7497 81.1653 70.6534 79.9093C71.0614 79.6377 71.5373 79.4001 71.9792 79.6038C72.3872 79.8074 72.4892 80.3506 72.4892 80.8259C72.4552 81.7764 72.1152 82.7269 71.4013 83.6435C72.8291 84.2545 74.2569 84.8995 75.7187 85.5106C76.0246 85.6464 76.3646 85.7821 76.6365 86.0198C76.9085 86.2574 77.0785 86.5969 77.0785 86.9364C77.0445 87.3777 76.6365 87.7171 76.2286 87.8529C75.8206 87.9887 75.3447 87.9208 74.6648 87.9548C75.5147 88.6677 76.3646 89.3805 77.2144 90.0934C77.5544 90.365 77.8943 90.7045 77.8943 91.1458C77.8943 91.5871 77.5204 91.9945 77.0785 92.1303C76.6365 92.2661 76.1946 92.2321 75.6507 91.9605C75.8886 92.1642 76.1266 92.4018 76.2626 92.6734C76.3986 92.9789 76.3986 93.3184 76.1946 93.59C75.9906 93.8616 75.6167 93.9634 75.0388 93.9295C75.4127 94.1332 75.2427 94.7782 74.8348 94.9479C74.4609 95.1176 74.0189 95.0158 73.611 94.88C71.1974 94.1332 68.8517 93.4203 66.5401 92.7074Z" fill="#F04A44"/>
<path d="M66.6426 92.3679C66.0307 90.2632 65.5208 88.0227 66.0647 85.918C66.9825 87.9887 67.1525 90.365 66.6426 92.3679Z" fill="black"/>
<path d="M71.2997 83.6435C70.5858 84.1866 69.8719 84.7637 69.124 85.3069C69.498 83.949 70.6198 82.8287 72.0136 82.4893C71.7756 82.9306 71.5716 83.4398 71.2997 83.6435Z" fill="black"/>
<path d="M74.2569 87.9208C73.3731 87.4795 72.3872 87.2079 71.4014 87.2079C72.0133 87.7171 72.6592 88.2263 73.4071 88.5658C74.1209 88.9052 74.9708 89.075 75.7527 88.8713C75.0728 88.4979 74.4949 88.0566 74.2569 87.9208Z" fill="black"/>
<path d="M75.6175 91.9604C74.8697 91.4852 74.0538 91.1457 73.1699 90.9081C73.5779 91.8247 74.6997 92.3678 75.6175 91.9604Z" fill="black"/>
<path d="M74.1559 93.6579C73.646 93.4882 73.1701 93.3184 72.6602 93.1487C72.7621 93.59 73.3061 93.8955 74.1559 93.6579Z" fill="black"/>
<path d="M60.4551 60.4916C61.4409 63.5468 63.0727 66.7039 65.1804 69.1481C65.7583 69.8271 66.6081 70.506 67.424 70.2005C68.1379 69.8949 68.3419 69.0123 68.4778 68.2315C68.6138 67.2471 68.7498 66.2626 68.8858 65.2781C69.0218 64.3955 68.3759 62.7321 68.6478 62.6303C69.5317 62.2568 67.152 59.8805 66.2002 59.6768C64.3305 59.2695 61.237 60.5255 60.4551 60.4916Z" fill="#FFB387"/>
<path d="M62.5283 60.1182C62.9023 61.2724 63.2422 62.4605 63.8201 63.5468C64.364 64.6331 65.1459 65.6516 66.1658 66.2965C66.5397 66.5342 66.9136 66.7039 67.3556 66.7379C67.7975 66.7718 68.2394 66.6021 68.4774 66.2287C68.7834 65.7194 68.6134 65.0744 68.3414 64.5652C67.7635 63.4789 66.8797 62.5963 65.8598 61.9174C64.84 61.2045 63.7521 60.6613 62.5283 60.1182Z" fill="black"/>
<path d="M73.0331 52.7855C73.305 56.3839 72.9311 60.0163 71.9452 63.4449C71.6733 64.3615 71.2993 65.346 70.4495 65.7194C69.3616 66.2286 68.1378 65.5497 67.152 64.8707C65.0103 63.377 62.9366 61.6797 61.7808 59.3373C60.625 57.0289 60.591 53.9397 62.3587 52.0387C63.2086 51.1221 64.3304 50.579 65.5202 50.2395C66.812 49.8661 68.2058 49.6963 69.4976 50.0019C70.7894 50.3074 72.8631 50.8166 73.0331 52.7855Z" fill="#FFB387"/>
<path d="M71.809 58.5905C72.2596 58.5905 72.6249 58.2258 72.6249 57.7758C72.6249 57.3258 72.2596 56.9611 71.809 56.9611C71.3584 56.9611 70.9932 57.3258 70.9932 57.7758C70.9932 58.2258 71.3584 58.5905 71.809 58.5905Z" fill="black"/>
<path d="M70.1093 57.64C70.5173 57.5721 70.9592 57.7079 71.1292 57.9116C71.3331 58.1152 71.3331 58.3529 71.3331 58.5565C71.3331 58.9979 71.3671 59.4052 71.3671 59.8465C71.3671 60.0502 71.3671 60.2539 71.1972 60.4576C71.0272 60.6273 70.5853 60.7631 70.2453 60.6613C69.9054 60.5594 69.8034 60.3218 69.7694 60.1181C69.7014 59.2355 69.7354 58.3868 70.1093 57.64Z" fill="#F04A44"/>
<path d="M67.7299 58.7263C68.1805 58.7263 68.5458 58.3615 68.5458 57.9115C68.5458 57.4616 68.1805 57.0968 67.7299 57.0968C67.2793 57.0968 66.9141 57.4616 66.9141 57.9115C66.9141 58.3615 67.2793 58.7263 67.7299 58.7263Z" fill="black"/>
<path d="M68.1035 61.6119C69.1574 61.5779 70.2112 61.51 71.265 61.4761C71.367 61.9853 71.0611 62.5284 70.5851 62.8C70.1092 63.0376 69.5313 63.0376 69.0554 62.8C68.5794 62.5284 68.2395 62.1211 68.1035 61.6119Z" fill="white"/>
<path d="M61.9847 62.4944C62.4266 62.8678 63.0385 63.2752 63.5485 62.9697C63.9904 62.6981 63.9904 62.0191 63.9224 61.5099C63.7184 60.0841 63.5485 58.6584 63.3445 57.2665C63.2765 56.6894 63.2085 56.0444 63.5485 55.6031C63.7864 55.2976 64.1264 55.1618 64.5003 55.026C65.9281 54.4829 67.4239 54.1094 68.8856 54.0415C69.5315 53.736 70.2794 53.7021 70.9593 53.9737C71.6052 54.2113 72.1491 54.7544 72.4211 55.3994C72.693 55.4673 72.897 55.7389 72.999 56.0105C73.101 56.2821 73.067 56.5876 73.067 56.8592C72.965 58.862 72.4551 60.9668 72.1491 62.7999C72.727 62.6302 73.4069 61.9852 73.6109 61.442C73.8149 60.8989 73.8149 60.2878 73.8489 59.7107C73.8829 58.6244 73.9169 57.572 73.9509 56.4857C73.9849 55.5352 73.9849 54.4829 73.4409 53.7021C72.897 52.8873 71.8772 52.5139 70.9253 52.2423C69.2936 51.801 67.5938 51.4955 65.9281 51.7331C64.2623 51.9368 62.5966 52.7176 61.5768 54.0415C60.6929 55.1957 60.319 56.7573 60.4549 58.217C60.5569 59.7107 60.7609 61.442 61.9847 62.4944Z" fill="#030303"/>
<path d="M74.6647 54.7205C74.0188 51.7332 73.033 48.1687 69.9395 46.9466C65.5881 45.6906 59.5371 47.2182 58.5852 52.2424C57.9733 54.9582 57.4294 59.2355 61.9167 62.5963C62.1887 61.1365 62.0527 58.0134 61.9847 56.4858C65.8601 54.6187 70.3134 53.9737 74.6647 54.7205Z" fill="#28738F"/>
<path d="M58.6533 51.2919C58.3814 52.7516 58.5854 54.2793 59.1973 55.6032C59.8432 56.9272 60.897 58.0474 62.1888 58.7263C62.3248 57.64 62.3248 56.5198 62.3248 55.4335C61.101 53.4985 60.3191 51.258 60.1491 49.0175C59.4352 49.9001 58.7553 50.8167 58.6533 51.2919Z" fill="#FFAF2E"/>
<path d="M74.7664 54.6527C74.0185 53.159 72.4207 52.2085 70.789 51.9709C69.1572 51.7332 67.4235 52.1745 65.9617 52.9893C64.4999 53.804 63.2761 54.9582 62.1543 56.1803C66.1317 55.5693 70.1771 55.2298 74.7664 54.6527Z" fill="black"/>
<path d="M61.7471 56.2482C66.2344 55.9766 71.3336 55.9427 75.7869 55.4335C76.0929 55.3995 76.3988 55.3656 76.6368 55.1959C76.8747 55.0261 77.0447 54.7206 76.9427 54.449C76.8068 54.1435 76.3988 54.0417 76.0589 54.0077C71.3336 53.6343 65.8944 54.1774 61.7471 56.2482Z" fill="#F04A44"/>
<path d="M68.6821 64.701C68.6481 64.701 68.5801 64.701 68.5461 64.701C67.3903 64.6671 65.7925 64.4634 64.5687 63.445C62.461 62.0531 61.0332 58.8282 61.4072 56.2142L61.4412 56.0445L61.6112 56.0784C63.2089 56.2821 65.5545 56.5197 67.8662 56.6216C70.9257 56.7234 72.9994 56.5197 74.0872 56.0105L74.3252 55.9087V56.1803C74.3252 56.5197 74.3252 56.8592 74.3252 57.1647C74.3252 59.5071 74.2912 61.9173 72.5915 63.8184C72.0136 64.2597 70.3818 64.701 68.6821 64.701ZM61.6791 56.4518C61.4072 58.8621 62.801 61.9173 64.7387 63.1734C65.8945 64.1239 67.4243 64.3276 68.5121 64.3615C70.3138 64.3955 71.8776 63.9202 72.3195 63.5468C73.9173 61.7816 73.9173 59.4053 73.9513 57.1308C73.9513 56.8932 73.9513 56.6216 73.9513 56.384C72.7614 56.8592 70.6878 57.0289 67.7982 56.9271C65.5545 56.8932 63.2769 56.6555 61.6791 56.4518Z" fill="white"/>
<path d="M68.6823 64.5653L68.3424 64.5314C68.5803 61.8156 68.3764 59.3035 67.7305 56.8593L68.0704 56.7574C68.7163 59.2356 68.9203 61.7816 68.6823 64.5653Z" fill="white"/>
<path d="M71.7753 63.9882C71.5373 61.2724 71.9453 58.8282 73.0671 56.4519L73.3731 56.5877C72.2852 58.8961 71.8773 61.3063 72.1152 63.9542L71.7753 63.9882Z" fill="white"/>
<path d="M69.4298 60.899C66.2003 60.899 62.4268 59.7109 61.543 58.6925L61.7809 58.4548C62.6648 59.4732 67.662 61.0348 71.1295 60.3898C72.6253 60.1182 73.5771 59.4733 73.9511 58.4888L74.257 58.6246C73.8151 59.7448 72.7952 60.4238 71.1635 60.7293C70.6536 60.8651 70.0417 60.899 69.4298 60.899Z" fill="white"/>
<path d="M106.858 89.2448H103.799V143.39H106.858V89.2448Z" fill="#F04A44"/>
<path d="M113.997 89.2448H110.938V143.39H113.997V89.2448Z" fill="#F04A44"/>
<path d="M113.997 89.2448H110.938V93.8276H113.997V89.2448Z" fill="black"/>
<path d="M97.918 89.5843C97.918 88.7356 98.5979 88.0566 99.4477 88.0566H111.516C112.366 88.0566 113.046 88.7356 113.046 89.5843C113.046 90.4329 112.366 91.1119 111.516 91.1119H99.4477C98.5979 91.1119 97.918 90.4329 97.918 89.5843Z" fill="#28738F"/>
<path d="M100.025 89.2448H96.9658V143.39H100.025V89.2448Z" fill="#F04A44"/>
<path d="M106.858 127.3H103.799V143.425H106.858V127.3Z" fill="black"/>
<path d="M106.858 91.1119H103.799V93.8277H106.858V91.1119Z" fill="black"/>
<path d="M113.997 127.3H110.938V143.425H113.997V127.3Z" fill="black"/>
<path d="M100.025 127.3H96.9658V143.425H100.025V127.3Z" fill="black"/>
<path d="M106.824 106.252H103.765V122.377H106.824V106.252Z" fill="#FFAF2E"/>
<path d="M113.963 106.252H110.903V122.377H113.963V106.252Z" fill="#FFAF2E"/>
<path d="M100.025 106.252H96.9658V122.377H100.025V106.252Z" fill="#FFAF2E"/>
</svg>
