<svg width="60" height="60" viewBox="0 0 60 60" fill="none" xmlns="http://www.w3.org/2000/svg">
<g filter="url(#filter0_d_339_8)">
<rect x="4" width="52" height="52" rx="10" fill="white"/>
</g>
<path d="M44.6443 20.334C44.9497 18.6917 45.6388 15.418 45.9557 13.7769C45.9713 13.6984 45.9712 13.6175 45.9555 13.539C45.9398 13.4605 45.9088 13.3859 45.8643 13.3193C45.8198 13.2528 45.7625 13.1957 45.6959 13.1513C45.6293 13.1069 45.5546 13.076 45.4761 13.0605L40.2364 12.0101C40.1252 11.9896 40.0105 12.0004 39.9051 12.0411C39.7996 12.0819 39.7075 12.1511 39.6389 12.241C39.5704 12.3309 39.5281 12.4381 39.5167 12.5506C39.5054 12.6631 39.5254 12.7765 39.5746 12.8783L40.2729 14.2808L39.0889 15.3008C39.0036 15.3757 38.9408 15.4729 38.9076 15.5815C38.8745 15.6901 38.8723 15.8058 38.9013 15.9156C38.9303 16.0253 38.9894 16.1248 39.0719 16.2029C39.1544 16.2809 39.257 16.3344 39.3682 16.3573L44.011 17.2862L43.5089 19.8058C36.9718 17.155 24.3578 17.1004 17.4825 19.4428L17.0533 17.2868L21.7004 16.3573C21.8108 16.3332 21.9124 16.2791 21.994 16.2009C22.0756 16.1228 22.1341 16.0237 22.163 15.9144C22.1918 15.8052 22.19 15.6901 22.1577 15.5818C22.1253 15.4736 22.0637 15.3763 21.9796 15.3008L20.7957 14.2808L21.4939 12.8783C21.5427 12.7765 21.5623 12.6632 21.5508 12.5509C21.5392 12.4386 21.4969 12.3317 21.4285 12.2419C21.36 12.1521 21.2682 12.083 21.1629 12.0421C21.0577 12.0012 20.9432 11.9901 20.8321 12.0101L15.5864 13.0605C15.5082 13.0762 15.4338 13.1072 15.3676 13.1518C15.3014 13.1963 15.2446 13.2536 15.2006 13.3202C15.1566 13.3867 15.1262 13.4614 15.1111 13.5398C15.0961 13.6181 15.0966 13.6987 15.1129 13.7769C15.4286 15.2984 16.0211 18.3548 16.3296 19.8714C14.2835 20.739 12.9994 21.864 13 23.2301V29.8358C16.0315 31.7137 19.2779 32.2359 25.2946 32.8351C26.5773 31.6522 28.2582 30.9954 30.003 30.9954C31.7479 30.9954 33.4288 31.6522 34.7114 32.8351C39.8661 32.4405 43.6971 31.5115 45.7857 30.4976C46.22 30.2978 46.6279 30.0449 47 29.7448V23.2301C47 22.0948 46.1136 21.1294 44.6443 20.334ZM37.9171 19.9576C39.6995 20.2204 41.4431 20.6995 43.1094 21.3844L39.0294 24.1663C38.1723 23.6661 37.2465 23.2943 36.2815 23.0625C36.287 23.0625 37.9062 19.9479 37.9171 19.9576ZM30.9896 19.3505C32.8803 19.376 34.7678 19.5139 36.6421 19.7633L35.0526 22.7899C33.712 22.5368 32.3534 22.3906 30.9896 22.3528V19.3505ZM24.1229 19.6662C25.9996 19.4539 27.8867 19.3465 29.7754 19.3444V22.3321C28.3274 22.3394 26.8823 22.4618 25.4537 22.6983L24.1229 19.6662ZM22.8685 19.8301L24.2346 22.9423C23.1044 23.1745 22.0175 23.5824 21.0137 24.1511L17.2816 21.2199C19.0833 20.5405 20.9584 20.0737 22.8685 19.8301ZM19.6324 25.9161C15.8821 24.8961 13.1785 23.4827 16.0618 21.8058L20.0756 24.9586C19.8452 25.2326 19.6922 25.5632 19.6324 25.9161ZM39.2031 26.1869C34.6143 27.2937 25.4039 27.2913 20.8139 26.193C20.7994 25.8894 21.1017 25.5773 21.3628 25.3824C23.6214 23.5143 31.4966 23.0893 35.2542 24.0625C36.4632 24.2694 37.6186 24.7161 38.6524 25.3764C38.9056 25.5779 39.2122 25.8815 39.2031 26.1869ZM40.3943 25.9137C40.3209 25.5803 40.1747 25.2672 39.9663 24.9969L44.3043 22.0401C46.5829 23.6175 43.8975 24.9508 40.3943 25.9137ZM14.2143 31.8819C13.7986 31.7067 13.3932 31.508 13 31.2869V34.3165C13 36.8665 17.4807 38.5726 23.0482 39.3437V38.1294C23.0121 36.6444 23.4526 35.1869 24.305 33.9705C20.5407 33.6305 16.7643 32.9505 14.2143 31.8819ZM35.7071 33.9705C36.8571 35.5205 37.0344 37.4494 36.9518 39.3437C42.5193 38.5726 47 36.8665 47 34.3165V31.1898C43.8951 32.9262 40.0045 33.5072 35.7071 33.9705Z" fill="#273F4F"/>
<path d="M29.9994 32.21C29.2183 32.213 28.4459 32.3746 27.7291 32.6851C27.0124 32.9956 26.3661 33.4485 25.8296 34.0162C25.2931 34.5839 24.8775 35.2547 24.608 35.9879C24.3385 36.7211 24.2208 37.5013 24.2619 38.2814V39.4896C28.0753 39.9115 31.9235 39.9115 35.7369 39.4896V38.2814C35.7761 37.5018 35.657 36.7223 35.3868 35.99C35.1167 35.2577 34.701 34.5876 34.1648 34.0203C33.6287 33.453 32.9832 33.0001 32.2673 32.689C31.5515 32.3778 30.78 32.2149 29.9994 32.21Z" fill="#273F4F"/>
<defs>
<filter id="filter0_d_339_8" x="0" y="0" width="60" height="60" filterUnits="userSpaceOnUse" color-interpolation-filters="sRGB">
<feFlood flood-opacity="0" result="BackgroundImageFix"/>
<feColorMatrix in="SourceAlpha" type="matrix" values="0 0 0 0 0 0 0 0 0 0 0 0 0 0 0 0 0 0 127 0" result="hardAlpha"/>
<feOffset dy="4"/>
<feGaussianBlur stdDeviation="2"/>
<feComposite in2="hardAlpha" operator="out"/>
<feColorMatrix type="matrix" values="0 0 0 0 0 0 0 0 0 0 0 0 0 0 0 0 0 0 0.25 0"/>
<feBlend mode="normal" in2="BackgroundImageFix" result="effect1_dropShadow_339_8"/>
<feBlend mode="normal" in="SourceGraphic" in2="effect1_dropShadow_339_8" result="shape"/>
</filter>
</defs>
</svg>
