<svg width="393" height="393" viewBox="0 0 393 393" fill="none" xmlns="http://www.w3.org/2000/svg">
<g clip-path="url(#clip0_367_513)">
<path d="M361.397 322.013L361.305 322.055V316.085C361.305 287.885 342.675 263.076 315.593 255.212L266.224 240.876C265.337 241.793 264.447 242.706 263.552 243.615C254.506 235.397 253.492 218.718 253.478 209C262.114 199.605 268.979 188.256 274.082 176.046C286.858 184.55 297.917 157.608 297.917 145.849C297.917 137.205 292.81 132.248 284.7 132.621C285.06 128.526 285.24 124.471 285.24 120.494C285.24 69.7323 245.509 57.0991 196.497 57.0991C147.486 57.0991 107.755 69.7323 107.755 120.494C107.755 124.506 107.938 128.596 108.304 132.727C100.231 131.78 95.0771 136.781 95.0771 145.849C95.0771 158.1 106.075 186.824 118.391 174.78C123.541 187.46 130.576 199.254 139.498 208.969C139.445 218.65 138.349 235.278 129.363 243.533C128.495 242.651 127.631 241.765 126.771 240.876L77.4023 255.212C50.3207 263.076 31.6903 287.885 31.6903 316.085V322.055L31.5984 322.013C28.6731 320.684 25.3516 322.822 25.3516 326.036V334.495C25.3516 337.887 27.334 340.965 30.4218 342.37L38.0291 345.827V373.984C38.0291 384.487 46.5428 393 57.0454 393H335.951C346.453 393 354.967 384.487 354.967 373.984V345.827L362.574 342.37C364.086 341.682 365.368 340.574 366.268 339.178C367.167 337.782 367.645 336.156 367.645 334.495V326.036C367.644 322.822 364.322 320.683 361.397 322.013Z" fill="#E6B47D"/>
<path d="M240.869 272.57L265.964 245.474C251.788 236.347 253.547 209.183 253.547 202.844H139.449C147.636 226.379 201.781 266.759 240.869 272.57Z" fill="#D2A073"/>
<path d="M284.701 132.621C285.061 128.526 285.241 124.471 285.241 120.494C285.241 69.7323 245.51 57.0991 196.498 57.0991C147.487 57.0991 107.756 69.7323 107.756 120.494C107.756 124.506 107.939 128.596 108.305 132.727C100.232 131.78 95.0781 136.781 95.0781 145.849C95.0781 158.1 106.076 186.824 118.392 174.78C131.73 207.623 157.665 234.592 196.498 234.592C234.831 234.592 260.597 208.313 274.083 176.046C286.859 184.55 297.918 157.608 297.918 145.849C297.918 137.205 292.811 132.248 284.701 132.621Z" fill="#F0C891"/>
<path d="M266.225 240.876C228.46 279.973 196.498 297.925 196.498 297.925C196.498 297.925 164.537 279.973 126.772 240.876L77.4034 255.212C50.3218 263.075 31.6914 287.885 31.6914 316.085V332.5L95.079 361.313V393H297.919V361.313L361.307 332.5V316.085C361.307 287.885 342.677 263.076 315.595 255.212L266.225 240.876Z" fill="#FF6955"/>
<path d="M354.968 335.957H342.291V316.084C342.291 296.467 329.134 278.943 310.294 273.474L268.191 261.248L271.726 249.072L313.828 261.298C338.05 268.333 354.968 290.863 354.968 316.085V335.957ZM50.7088 335.957H38.0312V316.084C38.0312 290.862 54.9494 268.332 79.1714 261.297L121.274 249.071L124.809 261.247L82.706 273.473C63.8665 278.942 50.7088 296.467 50.7088 316.083V335.957Z" fill="#FFBE37"/>
<path d="M30.4218 342.369L95.0779 371.758V350.868L31.5984 322.013C28.6731 320.684 25.3516 322.822 25.3516 326.036V334.495C25.3518 336.156 25.8301 337.781 26.7291 339.177C27.6282 340.574 28.9101 341.681 30.4218 342.369ZM362.575 342.369L297.919 371.758V350.868L361.399 322.013C364.324 320.684 367.645 322.822 367.645 326.036V334.495C367.645 336.156 367.167 337.781 366.268 339.177C365.369 340.574 364.087 341.681 362.575 342.369ZM266.224 240.876C228.46 279.973 196.498 297.925 196.498 297.925C196.498 297.925 164.536 279.973 126.772 240.876L105.745 246.982C149.307 292.21 185.373 313.455 186.946 314.37L196.498 319.916L206.05 314.37C207.623 313.455 243.689 292.209 287.251 246.982L266.224 240.876Z" fill="#C85050"/>
<path d="M266.223 348.628H228.19C226.509 348.628 224.897 349.296 223.708 350.485C222.519 351.673 221.852 353.286 221.852 354.967V361.305C221.852 376.166 226.08 386.226 231.074 392.999H263.34C268.333 386.226 272.562 376.166 272.562 361.305V354.967C272.562 353.285 271.894 351.673 270.705 350.484C269.516 349.296 267.904 348.628 266.223 348.628Z" fill="#FFBE37"/>
<path d="M251.248 392.999C257.85 381.062 259.886 367.54 259.886 361.306H234.531C234.531 367.54 236.568 381.062 243.169 392.999H251.248Z" fill="#C85050"/>
<path d="M285.242 12.7276C243.33 12.7276 177.877 -19.7561 152.283 19.0664H145.789C121.284 19.0664 101.418 39.1571 101.418 63.6627C101.418 86.4157 107.757 120.494 107.757 120.494C107.757 120.494 114.888 88.4037 145.789 76.1224L145.815 76.1105L145.789 76.3474C208.121 110.154 266.226 88.7999 266.226 88.7999L285.242 120.494C295.939 84.442 291.581 21.8396 285.242 12.7276Z" fill="#64464B"/>
</g>
<defs>
<clipPath id="clip0_367_513">
<rect width="393" height="393" fill="white"/>
</clipPath>
</defs>
</svg>
