<svg width="18" height="30" viewBox="0 0 18 30" fill="none" xmlns="http://www.w3.org/2000/svg">
<path d="M11.1307 19.8389H6.5339C6.21307 19.8389 5.90538 19.9663 5.67853 20.1932C5.45167 20.42 5.32422 20.7277 5.32422 21.0485C5.32422 21.3694 5.45167 21.6771 5.67853 21.9039C5.90538 22.1308 6.21307 22.2582 6.5339 22.2582H11.1307V19.8389Z" fill="#F7E1C1"/>
<path d="M5.42521 20.5645C5.3449 20.7485 5.31166 20.9496 5.32847 21.1496C5.34528 21.3497 5.41162 21.5424 5.52151 21.7104C5.63139 21.8785 5.78137 22.0165 5.95792 22.1121C6.13446 22.2077 6.33202 22.2578 6.53279 22.258H11.1296V21.2903H6.53279C6.2976 21.29 6.06758 21.2213 5.87087 21.0924C5.67415 20.9635 5.51928 20.78 5.42521 20.5645Z" fill="#EFCEA3"/>
<path d="M11.1307 17.4189H6.5339C6.21307 17.4189 5.90538 17.5464 5.67853 17.7733C5.45167 18.0001 5.32422 18.3078 5.32422 18.6286C5.32422 18.9494 5.45167 19.2571 5.67853 19.484C5.90538 19.7109 6.21307 19.8383 6.5339 19.8383H11.1307V17.4189Z" fill="#F7E1C1"/>
<path d="M5.42521 18.145C5.3449 18.329 5.31166 18.5301 5.32847 18.7302C5.34528 18.9302 5.41162 19.123 5.52151 19.291C5.63139 19.459 5.78137 19.597 5.95792 19.6926C6.13446 19.7882 6.33202 19.8384 6.53279 19.8386H11.1296V18.8708H6.53279C6.2976 18.8706 6.06758 18.8018 5.87087 18.6729C5.67415 18.544 5.51928 18.3606 5.42521 18.145Z" fill="#EFCEA3"/>
<path d="M15.9688 25.6456C16.6052 24.3727 16.9365 22.9693 16.9366 21.5462V17.0878C16.9366 16.5795 16.8365 16.0761 16.642 15.6064C16.4474 15.1368 16.1623 14.71 15.8029 14.3506L14.0333 12.5811H11.1301V20.8069L8.2269 18.3875V20.1706C8.22512 20.5983 8.15521 21.0229 8.0198 21.4286C7.79362 22.1178 7.76296 22.8561 7.93124 23.5616C8.09952 24.2671 8.46014 24.9121 8.97303 25.4249L9.19464 25.6456V29.5165H15.9688V25.6456Z" fill="#FAEDDA"/>
<path d="M16.9354 21.5462V17.0878C16.9354 16.5795 16.8353 16.0761 16.6408 15.6064C16.4463 15.1368 16.1612 14.71 15.8017 14.3506L14.0322 12.5811H11.129V20.8069L9.19349 19.1941V20.1706C9.19171 20.5983 9.1218 21.0229 8.98639 21.4286C8.76037 22.1178 8.7298 22.8561 8.89808 23.5615C9.06635 24.267 9.42688 24.912 9.93962 25.4249L10.1612 25.6456V29.5165H15.9677V25.6456C16.604 24.3727 16.9353 22.9693 16.9354 21.5462Z" fill="#F7E1C1"/>
<path d="M12.5812 0.483887H1.93599C1.13428 0.483887 0.484375 1.1338 0.484375 1.9355V16.4516C0.484375 17.2533 1.13428 17.9032 1.93599 17.9032H12.5812C13.3829 17.9032 14.0328 17.2533 14.0328 16.4516V1.9355C14.0328 1.1338 13.3829 0.483887 12.5812 0.483887Z" fill="#FFF575"/>
<path d="M14.9999 16.452V13.5488L14.0321 12.5811H11.1289V18.8714H12.5805C13.2219 18.8706 13.8369 18.6155 14.2904 18.1619C14.744 17.7084 14.9991 17.0934 14.9999 16.452Z" fill="#EFCEA3"/>
<path d="M12.5807 1.93555H3.38716C2.58546 1.93555 1.93555 2.58546 1.93555 3.38716V16.4517C1.93555 17.2534 2.58546 17.9033 3.38716 17.9033H12.5807C13.3824 17.9033 14.0323 17.2534 14.0323 16.4517V3.38716C14.0323 2.58546 13.3824 1.93555 12.5807 1.93555Z" fill="#FFD83F"/>
<path d="M8.97127 25.4235C8.45604 24.9087 8.09447 24.2605 7.92712 23.5516C7.75977 22.8427 7.79327 22.1012 8.02385 21.4103C8.15726 21.0104 8.22523 20.5917 8.22514 20.1701V15.4838C8.22514 15.0988 8.37808 14.7296 8.65031 14.4574C8.92254 14.1852 9.29176 14.0322 9.67675 14.0322C10.0617 14.0322 10.431 14.1852 10.7032 14.4574C10.9754 14.7296 11.1284 15.0988 11.1284 15.4838V20.8064" fill="#FAEDDA"/>
<path d="M11.1291 20.8067V15.4842C11.1286 15.1848 11.0352 14.893 10.8619 14.649C10.6885 14.405 10.4438 14.2207 10.1613 14.1216C9.87891 14.2207 9.63416 14.405 9.46083 14.649C9.28751 14.893 9.19414 15.1848 9.19361 15.4842V20.1705C9.1937 20.592 9.12572 21.0108 8.99232 21.4106C8.81592 21.9421 8.75557 22.5053 8.81533 23.0622C8.8751 23.619 9.05359 24.1565 9.33877 24.6385L11.1291 20.8067Z" fill="#F7E1C1"/>
<path d="M11.1289 17.9033H12.0966V21.2904C12.0966 21.4187 12.0457 21.5418 11.9549 21.6326C11.8642 21.7233 11.7411 21.7743 11.6128 21.7743C11.4844 21.7743 11.3614 21.7233 11.2706 21.6326C11.1799 21.5418 11.1289 21.4187 11.1289 21.2904V17.9033Z" fill="#EFCEA3"/>
<path d="M16.1439 14.0081L14.5161 12.3803V1.93548C14.5161 1.42216 14.3122 0.929864 13.9492 0.56689C13.5863 0.203916 13.094 0 12.5806 0H1.93548C1.42216 0 0.929864 0.203916 0.56689 0.56689C0.203916 0.929864 0 1.42216 0 1.93548V16.4516C0 16.9649 0.203916 17.4572 0.56689 17.8202C0.929864 18.1832 1.42216 18.3871 1.93548 18.3871H4.85855C4.81727 18.6508 4.84047 18.9206 4.92617 19.1734C5.01186 19.4262 5.15751 19.6545 5.35065 19.8387C5.10936 20.0735 4.94362 20.3749 4.87467 20.7044C4.80571 21.0339 4.83667 21.3765 4.96357 21.6883C5.09048 22.0001 5.30756 22.267 5.58702 22.4547C5.86649 22.6424 6.19561 22.7424 6.53226 22.7419H7.34758C7.36602 23.8781 7.82589 24.9626 8.62984 25.7656L8.70968 25.8455V29.5161C8.70968 29.6445 8.76066 29.7675 8.8514 29.8583C8.94214 29.949 9.06522 30 9.19355 30H15.9677C16.0961 30 16.2191 29.949 16.3099 29.8583C16.4006 29.7675 16.4516 29.6445 16.4516 29.5161V25.7574C17.0865 24.4448 17.4173 23.0059 17.4194 21.5477V17.0869C17.421 16.5149 17.3091 15.9482 17.0901 15.4197C16.8712 14.8912 16.5496 14.4114 16.1439 14.0081ZM7.55903 21.2768C7.50742 21.44 7.46525 21.6061 7.43274 21.7742H6.53226C6.33976 21.7742 6.15515 21.6977 6.01904 21.5616C5.88292 21.4255 5.80645 21.2409 5.80645 21.0484C5.80645 20.8559 5.88292 20.6713 6.01904 20.5352C6.15515 20.399 6.33976 20.3226 6.53226 20.3226H7.72936C7.71625 20.6469 7.65895 20.9679 7.55903 21.2768ZM7.74194 19.3548H6.53226C6.33976 19.3548 6.15515 19.2784 6.01904 19.1423C5.88292 19.0061 5.80645 18.8215 5.80645 18.629C5.80666 18.5463 5.82191 18.4643 5.85145 18.3871H7.74194V19.3548ZM7.74194 17.4194H1.93548C1.67882 17.4194 1.43267 17.3174 1.25119 17.1359C1.0697 16.9544 0.967742 16.7083 0.967742 16.4516V1.93548C0.967742 1.67882 1.0697 1.43267 1.25119 1.25119C1.43267 1.0697 1.67882 0.967742 1.93548 0.967742H12.5806C12.8373 0.967742 13.0835 1.0697 13.2649 1.25119C13.4464 1.43267 13.5484 1.67882 13.5484 1.93548V16.4516C13.5484 16.7083 13.4464 16.9544 13.2649 17.1359C13.0835 17.3174 12.8373 17.4194 12.5806 17.4194H11.6129V15.4839C11.6129 14.9705 11.409 14.4783 11.046 14.1153C10.683 13.7523 10.1907 13.5484 9.67742 13.5484C9.1641 13.5484 8.6718 13.7523 8.30883 14.1153C7.94585 14.4783 7.74194 14.9705 7.74194 15.4839V17.4194ZM16.4516 21.5458C16.4493 22.8938 16.1346 24.2229 15.5323 25.4289C15.4996 25.4963 15.483 25.5703 15.4839 25.6452V29.0323H9.67742V25.6452C9.67739 25.5168 9.62639 25.3938 9.53565 25.3031L9.31403 25.0815C8.86291 24.6329 8.54574 24.0675 8.39813 23.4486C8.25052 22.8298 8.27831 22.1821 8.47839 21.5782C8.62969 21.1241 8.70776 20.6488 8.70968 20.1702V15.4839C8.70968 15.2272 8.81163 14.9811 8.99312 14.7996C9.17461 14.6181 9.42076 14.5161 9.67742 14.5161C9.93408 14.5161 10.1802 14.6181 10.3617 14.7996C10.5432 14.9811 10.6452 15.2272 10.6452 15.4839V20.8065C10.6452 20.9348 10.6961 21.0579 10.7869 21.1486C10.8776 21.2393 11.0007 21.2903 11.129 21.2903C11.2574 21.2903 11.3804 21.2393 11.4712 21.1486C11.5619 21.0579 11.6129 20.9348 11.6129 20.8065V18.3871H12.5806C13.094 18.3871 13.5863 18.1832 13.9492 17.8202C14.3122 17.4572 14.5161 16.9649 14.5161 16.4516V13.7487L15.4597 14.6923C15.7751 15.006 16.0251 15.3792 16.1954 15.7903C16.3657 16.2013 16.4527 16.642 16.4516 17.0869V21.5458Z" fill="black"/>
</svg>
